<svg xmlns="http://www.w3.org/2000/svg" viewBox="0 0 48.4 48.3"><defs><style>.a{fill:#8cec92;}.a,.b{stroke:#505050;stroke-miterlimit:10;}.b{fill:#1eb0a8;}.c{fill:#1d968d;}</style></defs><path class="a" d="M44.11,16.9a8.41,8.41,0,0,1-8.21-6.6h-26a8,8,0,0,0-8,8V42.2a8,8,0,0,0,8,8h28.3a8,8,0,0,0,8-8.1V18.3c0-.56,0-1,0-1.65A10.48,10.48,0,0,1,44.11,16.9Z" transform="translate(-1.41 -2.4)"/><path class="b" d="M38.71,7.2h4V2.9h2.6V7.1h4V9.8h-4V14h-2.6V9.9h-4Z" transform="translate(-1.41 -2.4)"/><path class="c" d="M15.51,18.8h3.2l9,22.1h-4.2l-2-5.1h-9l-1.9,5.1H6.41Zm4.8,13.7-3.2-9-3.3,9Z" transform="translate(-1.41 -2.4)"/><path class="c" d="M25.71,18.8H33a13.58,13.58,0,0,1,2.9.3,6.91,6.91,0,0,1,2.5,1,5.19,5.19,0,0,1,1.7,1.9,6.76,6.76,0,0,1,.7,3.1,6,6,0,0,1-1.3,4,5.39,5.39,0,0,1-3.6,2l5.6,9.8H37l-4.9-9.4h-2.7v9.4h-3.7Zm8.2,9.3a6.08,6.08,0,0,0,1.5-.4,3.13,3.13,0,0,0,1.1-.9,2.86,2.86,0,0,0,.4-1.7,2.73,2.73,0,0,0-.4-1.6,2.84,2.84,0,0,0-1-.9,5.73,5.73,0,0,0-1.4-.4,7.57,7.57,0,0,0-1.5-.1h-3.2v6h2.9S33.52,28.15,33.91,28.1Z" transform="translate(-1.41 -2.4)"/></svg>