<?xml version="1.0" encoding="utf-8"?>
<!-- Generator: Adobe Illustrator 24.1.1, SVG Export Plug-In . SVG Version: 6.00 Build 0)  -->
<!DOCTYPE svg PUBLIC "-//W3C//DTD SVG 1.1//EN" "http://www.w3.org/Graphics/SVG/1.1/DTD/svg11.dtd" [
	<!ENTITY st0 "fill:#99CA8A;">
	<!ENTITY st1 "fill:#1FB1A9;">
	<!ENTITY st2 "fill:#12938C;">
]>
<svg version="1.1" id="Layer_1" xmlns="http://www.w3.org/2000/svg" xmlns:xlink="http://www.w3.org/1999/xlink" x="0px" y="0px"
	 viewBox="0 0 800 800" style="enable-background:new 0 0 800 800;" xml:space="preserve">
<g>
	<path style="&st0;" d="M512.461,711.403c-1.842,13.24-9.498,21.322-21.134,27.626c-25.287,13.701-50.222,28.12-74.731,43.183
		c-11.068,6.803-20.298,7.951-31.846,0.855c-26.174-16.084-52.931-31.233-79.732-46.255c-9.014-5.052-15.193-11.474-16.868-21.84
		c1.298-3.899,2.597-7.798,3.895-11.697c12.863-6.55,24.104-3.406,35.81,4.16c16.36,10.575,33.642,19.71,53.806,31.353
		c0-27.32,0.238-50.801-0.106-74.273c-0.158-10.744,1.325-20.43,10.295-27.518c5.37-0.026,10.739-0.053,16.109-0.079
		c8.331,6.531,10.308,15.292,10.128,25.525c-0.425,24.114-0.136,48.241-0.136,74.438c20.922-7.822,36.996-19.161,53.543-29.278
		c11.688-7.146,22.991-10.315,36.04-5.736C506.018,706.695,508.948,709.201,512.461,711.403z"/>
	<path style="&st0;" d="M289.322,75.25c2.599-6.738,6.472-12.004,13.12-15.738c27.795-15.609,55.577-31.274,82.825-47.816
		c10.793-6.553,19.833-6.026,30.2,0.197c25.697,15.426,51.554,30.602,77.693,45.253c9.484,5.316,16.387,11.866,18.746,22.682
		c-1.72,4.36-6.694,7.657-4.322,13.355c-13.018,4.386-24.409,1.586-35.965-5.856C455,76.624,437.449,67.38,417.903,56.136
		c0,27.65-0.333,51.282,0.142,74.898c0.233,11.606-1.962,21.513-12.083,28.352c-4.041,0.006-8.084,0.008-12.128,0.01
		c-9.77-7.037-12.559-16.609-12.221-28.485c0.682-23.998,0.203-48.029,0.203-74.937c-20.827,12.036-38.781,21.581-55.825,32.554
		c-11.347,7.305-22.015,9.584-33.982,2.788C291.114,85.961,290.218,80.605,289.322,75.25z"/>
	<path style="&st0;" d="M69.174,334.667c-5.805-5.543-9.107-12.01-9.068-20.381c0.17-36.594,0.073-73.189,0.073-109.513
		c12.422-15.098,29.881-20.949,44.876-30.304c16.263-10.146,33.169-19.249,49.672-29.015c7.998-4.733,16.076-7.783,25.346-4.209
		c3.233,4.309,6.465,8.617,9.698,12.926c-1.403,12.06-8.711,18.896-19.053,24.457c-18.124,9.748-35.599,20.715-55.538,32.463
		c23.246,13.424,43.467,25.525,64.112,36.845c10.291,5.643,17.399,12.768,18.06,25.026c-1.905,3.701-3.811,7.403-5.716,11.104
		c-11.088,4.838-20.723,1.976-30.763-4.115c-20.361-12.354-41.321-23.711-64.778-37.037c0,26.162-0.404,47.97,0.191,69.75
		c0.252,9.217-2.508,16.234-9.309,21.985C81.042,334.655,75.108,334.661,69.174,334.667z"/>
	<path style="&st1;" d="M189.77,154.171c-3.233-4.309-6.465-8.617-9.698-12.926c36.11-22.511,74.691-40.893,109.25-65.996
		c0.896,5.356,1.791,10.711,2.687,16.067c-0.392,13.57-12.488,14.705-20.904,18.906C243.512,123.998,219.536,144.511,189.77,154.171
		z"/>
	<path style="&st1;" d="M617.639,141.642c-2.531,4.183-5.062,8.365-7.593,12.548c-11.042-0.153-19.035-7.717-27.478-12.903
		c-25.288-15.535-53.383-26.771-74.983-48.103c-2.373-5.698,2.601-8.995,4.322-13.355C547.806,99.3,585.171,116.241,617.639,141.642
		z"/>
	<path style="&st1;" d="M87.028,460.244c-6.005-0.051-12.01-0.102-18.015-0.153c0.054-41.808,0.107-83.616,0.161-125.424
		c5.934-0.006,11.869-0.012,17.803-0.018C86.994,376.514,87.011,418.379,87.028,460.244z"/>
	<path style="&st1;" d="M712.706,334.726c5.938,1.485,11.859,1.485,17.761-0.204c0.032,41.916,0.064,83.832,0.096,125.749
		c-5.952-0.015-11.905-0.031-17.857-0.047C712.707,418.391,712.706,376.559,712.706,334.726z"/>
	<path style="&st1;" d="M610.385,640.856c1.781,4.106,3.561,8.212,5.342,12.318c-1.293,10.748-11.748,11.839-18.307,14.998
		c-28.644,13.797-53.066,36.014-84.959,43.231c-3.512-2.202-6.443-4.708-4.923-9.537
		C538.585,676.017,573.645,657.007,610.385,640.856z"/>
	<path style="&st1;" d="M182.22,653.157c2.377-4.103,4.753-8.206,7.13-12.308c23.397,7.927,44.147,21.165,64.489,34.58
		c13.07,8.62,31.983,9.703,38.207,27.847c-1.298,3.899-2.597,7.798-3.895,11.697C251.632,696.459,215.62,677.068,182.22,653.157z"/>
	<path style="&st1;" d="M407.492,513.469c0.156,41.15,0.312,82.3,0.468,123.45c-5.37,0.026-10.739,0.053-16.109,0.079
		c0.128-41.153,0.255-82.306,0.382-123.459C397.319,513.516,402.406,513.492,407.492,513.469z"/>
	<path style="&st1;" d="M430.596,401.172c34.809,26.949,74.858,45.196,111.976,68.281c21.912,13.627,47.068,22.146,65.536,41.278
		c-2.087,3.813-4.174,7.625-6.264,11.438c-28.671-8.128-51.302-27.762-77.159-41.279c-35.967-18.801-70.621-40.136-105.837-60.387
		C416.893,410.457,421.058,404.166,430.596,401.172z"/>
	<path style="&st1;" d="M392.178,370.496c0.333-70.366-2.754-140.759,1.653-211.096c4.046-0.006,8.09-0.008,12.131-0.013
		c4.336,38.282,1.081,76.696,1.833,115.044c0.628,32.001,0.416,64.019,0.576,96.029
		C402.987,376.092,397.591,376.865,392.178,370.496z"/>
	<path style="&st1;" d="M191.54,511.041c16.849-18.088,40.051-26.36,60.461-38.812c36.456-22.241,73.986-42.702,110.955-64.104
		c2.546-1.474,4.157-4.58,6.202-6.927c9.686,2.881,13.982,9.085,11.78,19.295c-52.947,30.63-105.946,61.17-158.783,91.99
		c-7.773,4.534-15.028,9.758-24.513,9.592C195.608,518.397,193.574,514.719,191.54,511.041z"/>
	<path style="&st0;" d="M496.153,333.389c2.545,3.29,5.09,6.581,7.634,9.871c-1.459,5.513-2.918,11.026-4.579,17.304
		c-22.793,13.49-45.703,27.049-68.612,40.608c-9.538,2.994-13.703,9.285-11.748,19.331c-0.295,22.513-1.054,45.034-0.678,67.537
		c0.176,10.519-2.724,18.81-10.678,25.429c-5.086,0.023-10.172,0.047-15.258,0.07c-7.854-6.674-10.862-14.93-10.677-25.462
		c0.395-22.517-0.344-45.055-0.619-67.584c2.202-10.21-2.094-16.414-11.78-19.295c-17.996-10.48-35.891-21.141-54.027-31.371
		c-10.471-5.906-19.131-12.598-17.521-26.401c1.995-3.446,3.991-6.891,5.987-10.336c10.379-4.294,19.414-1.629,28.821,3.951
		c19.63,11.645,39.808,22.358,59.761,33.454c5.412,6.369,10.809,5.596,16.194-0.037c20.309-11.451,40.735-22.699,60.872-34.449
		C478.039,330.878,486.677,329.058,496.153,333.389z"/>
	<path style="&st1;" d="M496.153,333.389c7.28-10.226,19.342-13.677,29.265-19.849c25.229-15.692,51.485-29.717,77.329-44.409
		c1.808,4.914,3.616,9.828,5.424,14.741c-8.918,15.461-25.893,19.513-39.92,27.06c-21.138,11.372-39.36,28.933-64.464,32.328
		C501.243,339.969,498.698,336.679,496.153,333.389z"/>
	<path style="&st1;" d="M297.61,343.427c-16.601,2.044-26.262-11.721-39.289-17.745c-21.421-9.905-40.14-25.022-62.254-33.792
		c-3.472-1.377-4.224-4.487-4.431-7.823c1.905-3.702,3.81-7.403,5.716-11.104c37.74,15.896,73.286,35.704,106.245,60.128
		C301.601,336.535,299.605,339.981,297.61,343.427z"/>
	<path style="&st0;" d="M730.564,460.271c6.201,5.342,9.16,12.022,9.135,20.323c-0.11,36.647-0.048,73.295-0.048,108.958
		c-10.005,14.638-25.58,18.92-38.375,27.024c-17.833,11.295-36.635,21.034-54.609,32.117c-9.955,6.139-19.843,8.423-30.941,4.481
		c-1.781-4.106-3.561-8.212-5.342-12.318c0.259-10.822,6.141-17.412,15.271-22.52c19.157-10.717,37.954-22.083,58.951-34.385
		c-23.046-13.461-43.158-25.88-63.931-37.061c-10.477-5.639-17.39-12.748-18.831-24.722c2.09-3.813,4.177-7.625,6.264-11.437
		c11.823-4.923,21.984-1.194,32.365,5.063c19.864,11.973,40.212,23.134,63,36.139c0-24.866,0.241-46.385-0.111-67.894
		c-0.155-9.472,1.526-17.734,9.345-23.815C718.659,460.24,724.612,460.255,730.564,460.271z"/>
	<path style="&st0;" d="M182.22,653.157c-6.181,1.554-12.527,4.067-18.668,0.69c-34.706-19.085-69.43-38.158-103.185-60.509
		c0-39.575,0.035-78.137-0.031-116.699c-0.012-7.159,4.168-11.89,8.677-16.548c6.005,0.051,12.01,0.102,18.015,0.153
		c8.736,6.598,9.548,15.971,9.449,25.939c-0.212,21.366-0.065,42.736-0.065,66.069c23.98-13.738,45.265-25.466,66.04-38.044
		c9.575-5.797,18.793-7.607,29.087-3.167c2.034,3.678,4.068,7.356,6.102,11.035c-0.87,12.264-8.002,19.071-18.497,24.739
		c-21.18,11.439-41.649,24.206-63.924,37.315c20.63,12.074,38.55,23.239,57.127,33.161c9.981,5.331,16.373,12.019,17.002,23.558
		C186.973,644.951,184.597,649.054,182.22,653.157z"/>
	<path style="&st0;" d="M617.639,141.642c9.706-3.245,18.517-1.69,27.383,3.585c26.393,15.705,52.895,31.246,79.714,46.199
		c10.821,6.033,15.332,14.165,15.155,26.442c-0.456,31.502-0.374,63.014-0.209,94.52c0.047,8.9-2.035,16.478-9.214,22.134
		c-5.902,1.689-11.823,1.69-17.761,0.204c-7.85-6.14-9.507-14.321-9.268-23.967c0.534-21.564,0.167-43.151,0.167-67.719
		c-24.225,13.668-45.547,25.141-66.261,37.632c-9.665,5.828-18.868,7.419-29.172,3.198c-1.808-4.913-3.616-9.827-5.424-14.741
		c1.46-10.91,9.287-15.936,17.968-20.86c20.928-11.869,41.522-24.333,64.042-37.614c-20.826-12.083-38.858-23.07-57.405-33.092
		c-9.772-5.28-16.259-12.044-17.308-23.375C612.576,150.007,615.107,145.824,617.639,141.642z"/>
</g>
<g>
	<path style="&st2;" d="M323.834,701.743H136.251l-35.785,86.577H4.654l180.08-404.025h92.349L457.739,788.32h-98.12
		L323.834,701.743z M294.398,630.75l-64.067-154.684L166.264,630.75H294.398z"/>
	<path style="&st2;" d="M699.575,788.32l-77.919-112.55h-4.617h-81.383v112.55h-93.503V384.295h174.886
		c107.932,0,175.462,55.986,175.462,146.604c0,60.604-30.591,105.047-83.113,127.557l90.616,129.865H699.575z M611.844,460.482
		h-76.188v140.832h76.188c57.141,0,86-26.551,86-70.416C697.844,486.456,668.984,460.482,611.844,460.482z"/>
</g>
<g>
</g>
<g>
</g>
<g>
</g>
<g>
</g>
<g>
</g>
<g>
</g>
</svg>
