<?xml version="1.0" encoding="utf-8"?>
<!-- Generator: Adobe Illustrator 24.1.1, SVG Export Plug-In . SVG Version: 6.00 Build 0)  -->
<!DOCTYPE svg PUBLIC "-//W3C//DTD SVG 1.1//EN" "http://www.w3.org/Graphics/SVG/1.1/DTD/svg11.dtd" [
	<!ENTITY st0 "fill:url(#SVGID_1_);">
	<!ENTITY st1 "fill:#FFFFFF;">
	<!ENTITY st2 "fill:url(#SVGID_2_);">
	<!ENTITY st3 "fill:url(#SVGID_3_);">
	<!ENTITY st4 "fill:url(#SVGID_4_);">
	<!ENTITY st5 "fill:url(#SVGID_5_);">
	<!ENTITY st6 "fill:url(#SVGID_6_);">
	<!ENTITY st7 "fill:url(#SVGID_7_);">
	<!ENTITY st8 "fill:url(#SVGID_8_);">
	<!ENTITY st9 "fill:url(#SVGID_9_);">
	<!ENTITY st10 "fill:url(#SVGID_10_);">
	<!ENTITY st11 "fill:url(#SVGID_11_);">
	<!ENTITY st12 "fill:url(#SVGID_12_);">
	<!ENTITY st13 "fill:url(#SVGID_13_);">
	<!ENTITY st14 "fill:url(#SVGID_14_);">
	<!ENTITY st15 "fill:url(#SVGID_15_);">
	<!ENTITY st16 "fill:url(#SVGID_16_);">
	<!ENTITY st17 "fill:url(#SVGID_17_);">
	<!ENTITY st18 "fill:url(#SVGID_18_);">
]>
<svg version="1.1" xmlns="http://www.w3.org/2000/svg" xmlns:xlink="http://www.w3.org/1999/xlink" x="0px" y="0px"
	 viewBox="0 0 5141.823 911.094" style="enable-background:new 0 0 5141.823 911.094;" xml:space="preserve">
<g id="Layer_1">
	<g>
		<path d="M855.683,550.485c0-10.653,0.969-23.244,3.874-38.74l49.394-278.93c23.244-131.717,103.63-188.858,260.528-188.858
			c64.89,0,123,10.653,185.953,28.087l-31.961,122.031c-54.236-11.622-122.032-21.307-168.521-21.307
			c-68.764,0-96.85,23.244-108.473,91.039L1006.77,488.5c-1.938,10.653-2.905,23.244-2.905,30.024
			c0,44.551,25.181,61.016,79.417,61.016c46.488,0,109.441-5.812,167.552-18.402l4.842,122.032
			c-51.33,14.527-123,25.181-194.669,25.181C918.636,708.351,855.683,640.556,855.683,550.485z"/>
		<path d="M1673.104,379.059c0.969-5.811,1.938-11.622,1.938-15.496c0-9.685-4.843-13.559-18.401-13.559
			c-25.182,0-85.229,25.181-122.032,44.551l-53.268,304.111h-136.56L1461.97,34.271l139.465-19.37l-43.583,249.875
			c57.142-29.055,121.063-47.457,172.394-47.457c62.953,0,86.197,35.835,86.197,95.882c0,16.464-0.969,34.866-4.842,54.236
			l-58.111,331.229h-136.559L1673.104,379.059z"/>
		<path d="M2138.957,698.666l-3.874-40.677c-32.93,25.181-82.323,50.361-150.118,50.361c-102.662,0-123.001-61.984-104.6-167.551
			l22.276-126.874c19.37-112.347,63.921-195.638,249.874-195.638c49.395,0,114.284,8.717,180.143,29.055l-78.449,451.324H2138.957z
			 M2014.988,555.327c-3.874,25.182,1.937,34.866,26.149,34.866c34.866,0,72.638-20.339,103.63-46.488l35.835-204.354
			c-18.401-3.874-38.74-4.843-53.268-4.843c-70.701,0-79.418,34.866-88.134,80.386L2014.988,555.327z"/>
		<path d="M2691.97,341.287c-60.048,32.93-82.323,45.52-136.56,79.418l-49.394,277.961h-136.56l80.386-460.04l120.095-20.339
			l-2.905,63.921c45.52-27.118,82.323-46.488,123-63.921L2691.97,341.287z"/>
		<path d="M2887.608,227.004l3.874,40.677c33.897-28.086,82.322-50.362,150.118-50.362c102.661,0,127.843,61.984,109.441,167.552
			l-22.276,126.874c-19.369,112.347-48.425,196.606-246.969,196.606c-14.527,0-44.551-1.937-57.142-4.842l-32.929,185.953
			l-139.465,19.37l120.094-681.828H2887.608z M3017.387,368.406c4.843-25.181-1.937-36.803-26.149-36.803
			c-48.426,0-83.291,25.181-109.441,48.425l-36.803,210.166c15.496,2.905,33.897,3.874,53.268,3.874
			c70.701,0,85.229-37.771,93.945-83.291L3017.387,368.406z"/>
		<path d="M3186.878,677.359l26.149-100.725c35.835,12.591,76.513,24.213,127.843,24.213c45.52,0,48.426-13.559,52.3-35.834
			c3.874-21.308-9.686-32.93-62.953-61.017c-98.788-52.299-102.661-87.165-90.071-157.866
			c18.402-101.693,48.426-128.812,179.174-128.812c44.551,0,101.693,9.686,140.434,22.276l-22.275,102.662
			c-34.867-9.685-86.197-17.433-119.127-17.433c-40.677,0-46.488,4.842-51.33,30.024c-3.875,22.275,0.968,27.118,46.488,51.331
			c108.473,58.111,124.937,78.449,111.378,153.024c-19.37,106.536-50.362,149.149-191.765,149.149
			C3289.541,708.351,3228.524,695.761,3186.878,677.359z"/>
		<path d="M3811.562,336.445l-41.646,235.347c-0.969,4.842-1.938,9.685-1.938,12.59c0,6.78,3.874,9.686,13.56,9.686
			c23.244,0,49.394-9.686,73.606-19.37l27.118,94.913c-38.74,21.308-94.914,38.74-150.119,38.74
			c-68.764,0-105.566-32.929-105.566-89.102c0-6.78,0.969-13.56,1.937-20.339l46.488-262.465h-69.732l19.37-109.441h69.732
			l19.37-113.315l140.434-19.37l-23.244,132.686h112.347l-27.118,109.441H3811.562z"/>
		<path d="M4409.125,541.769H4139.88l-80.386,156.897h-85.229l324.449-645.025h116.221l100.725,645.025h-83.291L4409.125,541.769z
			 M4172.81,472.036h225.662l-49.395-362.222L4172.81,472.036z"/>
		<path d="M4899.181,464.288H4737.44l-41.646,234.378h-81.354l114.284-645.025h230.504c121.063,0,170.457,48.425,170.457,126.875
			c0,10.653-0.969,24.212-2.905,34.866l-16.465,92.977c-13.56,77.48-39.709,122.031-127.843,145.275l125.906,245.032h-89.104
			L4899.181,464.288z M5045.425,215.382c1.937-10.654,2.905-19.37,2.905-27.118c0-46.488-29.056-61.984-94.913-61.984h-156.898
			l-46.488,266.339h156.898c79.417,0,111.378-23.244,123-90.071L5045.425,215.382z"/>
	</g>
</g>
<g id="Layer_2">
	<g>
		<g id="Triangles_1_">
			<g>
				
					<linearGradient id="SVGID_1_" gradientUnits="userSpaceOnUse" x1="350.8559" y1="485.646" x2="223.2965" y2="728.1017" gradientTransform="matrix(-0.2712 0.578 -0.4365 -0.2048 915.4746 418.0928)">
					<stop  offset="0" style="stop-color:#F6D27B"/>
					<stop  offset="0.2815" style="stop-color:#D9B86B"/>
					<stop  offset="0.7438" style="stop-color:#B39656"/>
					<stop  offset="1" style="stop-color:#A68B50"/>
				</linearGradient>
				<polygon style="&st0;" points="675.351,458.543 512.193,533.82 510.739,422.851 				"/>
			</g>
			<polygon style="&st1;" points="675.427,458.126 521.509,423.329 509.05,432.039 510.492,535.495 514.398,533.833 
				512.716,432.863 520.808,426.734 671.331,460.044 675.079,459.074 			"/>
			<g>
				<linearGradient id="SVGID_2_" gradientUnits="userSpaceOnUse" x1="689.212" y1="348.0287" x2="689.212" y2="9.7949">
					<stop  offset="0" style="stop-color:#A68B50"/>
					<stop  offset="0.5796" style="stop-color:#D0B066"/>
					<stop  offset="1" style="stop-color:#F6D27B"/>
				</linearGradient>
				<polygon style="&st2;" points="576.07,20.817 802.354,300.766 663.491,359.051 				"/>
				<path style="&st1;" d="M579.254,27.143l220.678,273.013l-135.423,56.841L579.254,27.143 M572.886,14.492l3.464,13.402
					l85.255,329.854l0.868,3.358l3.198-1.342l135.423-56.841l3.683-1.546l-2.511-3.106L581.587,25.257L572.886,14.492
					L572.886,14.492z"/>
			</g>
			<g>
				
					<linearGradient id="SVGID_3_" gradientUnits="userSpaceOnUse" x1="710.9647" y1="262.0485" x2="551.2096" y2="-112.1943" gradientTransform="matrix(0.5463 -0.8376 0.8376 0.5463 82.5286 653.6812)">
					<stop  offset="0" style="stop-color:#A68B50"/>
					<stop  offset="0.5796" style="stop-color:#D0B066"/>
					<stop  offset="1" style="stop-color:#F6D27B"/>
				</linearGradient>
				<polygon style="&st3;" points="268.464,251.195 574.859,18.769 662.699,358.704 				"/>
				<path style="&st1;" d="M573.971,21.326l86.63,335.252L271.797,250.549L573.971,21.326 M575.748,16.212l-3.59,2.724
					L269.984,248.159l-4.853,3.682l5.877,1.603l388.803,106.029l4.987,1.36l-1.293-5.005l-86.63-335.252L575.748,16.212
					L575.748,16.212z"/>
			</g>
			<g>
				
					<linearGradient id="SVGID_4_" gradientUnits="userSpaceOnUse" x1="551.9213" y1="521.5619" x2="277.6446" y2="257.9617" gradientTransform="matrix(-0.0198 0.9998 -0.9998 -0.0198 742.2134 -348.7569)">
					<stop  offset="0" style="stop-color:#A68B50"/>
					<stop  offset="0.5796" style="stop-color:#D0B066"/>
					<stop  offset="1" style="stop-color:#F6D27B"/>
				</linearGradient>
				<polygon style="&st4;" points="120.292,92.472 573.664,18.585 267.941,250.845 				"/>
				<path style="&st1;" d="M567.96,21.034L268.114,248.831L123.302,93.501L567.96,21.034 M579.368,16.135l-11.89,1.938L122.82,90.54
					l-5.538,0.903l3.826,4.104l144.812,155.33l1.849,1.984l2.16-1.641L569.775,23.423L579.368,16.135L579.368,16.135z"/>
			</g>
			<g>
				
					<linearGradient id="SVGID_5_" gradientUnits="userSpaceOnUse" x1="202.9077" y1="22.5438" x2="513.1634" y2="393.8868" gradientTransform="matrix(-0.6444 -0.7647 0.7647 -0.6444 226.3655 753.226)">
					<stop  offset="0" style="stop-color:#A68B50"/>
					<stop  offset="0.5796" style="stop-color:#D0B066"/>
					<stop  offset="1" style="stop-color:#F6D27B"/>
				</linearGradient>
				<polygon style="&st5;" points="120.665,93.557 267.844,251.795 19.259,567.036 				"/>
				<path style="&st1;" d="M121.528,96.688L265.87,251.876L22.077,561.04L121.528,96.688 M119.801,90.427l-1.206,5.633
					L19.144,560.412l-2.703,12.621l7.992-10.135l243.793-309.164l1.592-2.019l-1.751-1.882L123.725,94.645L119.801,90.427
					L119.801,90.427z"/>
			</g>
			<g>
				
					<linearGradient id="SVGID_6_" gradientUnits="userSpaceOnUse" x1="-280.9266" y1="168.9812" x2="12.3278" y2="290.9487" gradientTransform="matrix(0.6745 -0.7383 0.7383 0.6745 177.1215 453.807)">
					<stop  offset="0" style="stop-color:#A68B50"/>
					<stop  offset="0.5796" style="stop-color:#D0B066"/>
					<stop  offset="1" style="stop-color:#F6D27B"/>
				</linearGradient>
				<polygon style="&st6;" points="16.025,568.546 380.186,597.97 406.663,889.528 				"/>
				<path style="&st1;" d="M20.676,570.427l358.13,28.936l26.039,286.729L20.676,570.427 M11.373,566.666l7.399,6.079L402.94,888.41
					l5.541,4.553l-0.649-7.142l-26.039-286.729l-0.228-2.516l-2.518-0.203l-358.13-28.936L11.373,566.666L11.373,566.666z"/>
			</g>
			<g>
				
					<linearGradient id="SVGID_7_" gradientUnits="userSpaceOnUse" x1="101.9146" y1="307.2487" x2="363.7802" y2="412.4032" gradientTransform="matrix(0.227 -0.9739 0.9739 0.227 192.0371 721.7968)">
					<stop  offset="0" style="stop-color:#F6D27B"/>
					<stop  offset="0.5653" style="stop-color:#C4A55F"/>
					<stop  offset="1" style="stop-color:#A68B50"/>
				</linearGradient>
				<polygon style="&st7;" points="377.886,596.706 674.755,460.086 762.422,628.633 				"/>
				<path style="&st1;" d="M674.084,462.046l85.752,164.867l-376.14-31.229L674.084,462.046 M675.427,458.126l-2.597,1.195
					L382.443,592.958l-10.367,4.771l11.373,0.944l376.14,31.229l5.419,0.45l-2.509-4.824l-85.752-164.867L675.427,458.126
					L675.427,458.126z"/>
			</g>
			<g>
				
					<linearGradient id="SVGID_8_" gradientUnits="userSpaceOnUse" x1="186.3693" y1="88.4619" x2="283.8248" y2="519.2455" gradientTransform="matrix(-0.4579 -0.889 0.889 -0.4579 347.9048 1015.4617)">
					<stop  offset="0" style="stop-color:#A68B50"/>
					<stop  offset="0.5796" style="stop-color:#D0B066"/>
					<stop  offset="1" style="stop-color:#F6D27B"/>
				</linearGradient>
				<polygon style="&st8;" points="381.629,597.614 767.064,629.674 407.339,888.087 				"/>
				<path style="&st1;" d="M383.28,599.256l379.602,31.576L408.602,885.333L383.28,599.256 M379.978,595.971l0.314,3.55
					l25.321,286.077l0.464,5.243l4.275-3.071l354.281-254.502l6.614-4.751l-8.115-0.675l-379.602-31.576L379.978,595.971
					L379.978,595.971z"/>
			</g>
		</g>
		<g id="Circles_2_">
			<linearGradient id="SVGID_9_" gradientUnits="userSpaceOnUse" x1="790.5634" y1="296.9228" x2="815.6909" y2="306.0685">
				<stop  offset="0" style="stop-color:#D0B26E"/>
				<stop  offset="1" style="stop-color:#B49B61"/>
			</linearGradient>
			<circle style="&st9;" cx="803.127" cy="301.496" r="13.366"/>
			<linearGradient id="SVGID_10_" gradientUnits="userSpaceOnUse" x1="662.2883" y1="348.7133" x2="664.5125" y2="374.1355">
				<stop  offset="0" style="stop-color:#D0B26E"/>
				<stop  offset="1" style="stop-color:#B49B61"/>
			</linearGradient>
			<circle style="&st10;" cx="663.4" cy="361.424" r="12.759"/>
			<linearGradient id="SVGID_11_" gradientUnits="userSpaceOnUse" x1="251.0738" y1="256.5396" x2="281.9121" y2="245.3154">
				<stop  offset="0" style="stop-color:#D0B26E"/>
				<stop  offset="1" style="stop-color:#B49B61"/>
			</linearGradient>
			<circle style="&st11;" cx="266.493" cy="250.927" r="16.404"/>
			<linearGradient id="SVGID_12_" gradientUnits="userSpaceOnUse" x1="562.8691" y1="30.4236" x2="586.0683" y2="7.2244">
				<stop  offset="0" style="stop-color:#D0B26E"/>
				<stop  offset="1" style="stop-color:#B49B61"/>
			</linearGradient>
			<circle style="&st12;" cx="574.469" cy="18.824" r="16.404"/>
			<linearGradient id="SVGID_13_" gradientUnits="userSpaceOnUse" x1="3.1954" y1="577.2819" x2="31.6132" y2="560.8749">
				<stop  offset="0" style="stop-color:#B49B61"/>
				<stop  offset="1" style="stop-color:#D0B26E"/>
			</linearGradient>
			<circle style="&st13;" cx="17.404" cy="569.078" r="16.404"/>
			<linearGradient id="SVGID_14_" gradientUnits="userSpaceOnUse" x1="359.8757" y1="594.5825" x2="386.1454" y2="604.1439">
				<stop  offset="0" style="stop-color:#B49B61"/>
				<stop  offset="1" style="stop-color:#D0B26E"/>
			</linearGradient>
			<circle style="&st14;" cx="373.011" cy="599.363" r="13.974"/>
			<linearGradient id="SVGID_15_" gradientUnits="userSpaceOnUse" x1="499.2219" y1="408.7856" x2="519.8434" y2="429.4071">
				<stop  offset="0" style="stop-color:#B49B61"/>
				<stop  offset="1" style="stop-color:#D0B26E"/>
			</linearGradient>
			<circle style="&st15;" cx="509.533" cy="419.096" r="14.582"/>
			<linearGradient id="SVGID_16_" gradientUnits="userSpaceOnUse" x1="749.9095" y1="620.7188" x2="776.787" y2="639.5386">
				<stop  offset="0" style="stop-color:#D0B26E"/>
				<stop  offset="1" style="stop-color:#B49B61"/>
			</linearGradient>
			<circle style="&st16;" cx="763.348" cy="630.129" r="16.404"/>
			<linearGradient id="SVGID_17_" gradientUnits="userSpaceOnUse" x1="392.3786" y1="902.9799" x2="419.8739" y2="875.4846">
				<stop  offset="0" style="stop-color:#B49B61"/>
				<stop  offset="1" style="stop-color:#D0B26E"/>
			</linearGradient>
			<circle style="&st17;" cx="406.126" cy="889.232" r="19.442"/>
			<linearGradient id="SVGID_18_" gradientUnits="userSpaceOnUse" x1="97.2691" y1="92.9604" x2="143.4442" y2="92.9604">
				<stop  offset="0" style="stop-color:#B49B61"/>
				<stop  offset="1" style="stop-color:#D0B26E"/>
			</linearGradient>
			<circle style="&st18;" cx="120.357" cy="92.96" r="23.088"/>
		</g>
	</g>
	<g>
	</g>
	<g>
	</g>
	<g>
	</g>
	<g>
	</g>
	<g>
	</g>
	<g>
	</g>
</g>
</svg>
