<?xml version="1.0" encoding="utf-8"?>
<!-- Generator: Adobe Illustrator 24.1.1, SVG Export Plug-In . SVG Version: 6.00 Build 0)  -->
<!DOCTYPE svg PUBLIC "-//W3C//DTD SVG 1.1//EN" "http://www.w3.org/Graphics/SVG/1.1/DTD/svg11.dtd" [
	<!ENTITY st0 "display:none;">
	<!ENTITY st1 "display:inline;">
	<!ENTITY st2 "fill:#8CEC92;">
	<!ENTITY st3 "fill:#72BA72;">
	<!ENTITY st4 "fill:#1EB0A8;">
	<!ENTITY st5 "fill:#F7F3ED;">
	<!ENTITY st6 "fill:#505050;">
	<!ENTITY st7 "fill:#D1D1D1;">
	<!ENTITY st8 "fill:#1D968D;">
	<!ENTITY st9 "fill:#BFBCB8;">
	<!ENTITY st10 "fill:#A2A29B;">
	<!ENTITY st11 "fill:#FFFFFF;">
	<!ENTITY st12 "opacity:0.1;fill:#2626BC;enable-background:new    ;">
	<!ENTITY st13 "fill:#868686;">
	<!ENTITY st14 "font-family:'Montserrat-Bold';">
	<!ENTITY st15 "font-size:13.0587px;">
	<!ENTITY st16 "fill:#FFF1D7;">
	<!ENTITY st17 "fill:#A2A2A2;">
	<!ENTITY st18 "fill:#01ECA5;">
	<!ENTITY st19 "display:inline;opacity:0.1;fill:#2626BC;enable-background:new    ;">
	<!ENTITY st20 "display:inline;fill:#1D968D;">
	<!ENTITY st21 "display:inline;fill:#1EB0A8;">
	<!ENTITY st22 "display:inline;fill:#505050;">
	<!ENTITY st23 "display:inline;fill:#8CEC92;">
	<!ENTITY st24 "display:inline;fill:#72BA72;">
	<!ENTITY st25 "display:inline;fill:#72BA72;stroke:#505050;stroke-width:1.3;stroke-miterlimit:10;">
	<!ENTITY st26 "display:inline;fill:#F7F3ED;">
	<!ENTITY st27 "display:inline;fill:#D1D1D1;">
	<!ENTITY st28 "display:inline;fill:#BFBCB8;">
]>
<svg version="1.1" xmlns="http://www.w3.org/2000/svg" xmlns:xlink="http://www.w3.org/1999/xlink" x="0px" y="0px"
	 viewBox="0 0 120 120" style="enable-background:new 0 0 120 120;" xml:space="preserve">
<g id="Send" style="&st0;">
	<g style="&st1;">
		<g>
			<g>
				<g>
					<path style="&st2;" d="M101.4,25.7L46.7,52.6L45.3,59l3.6,25.1L101.4,25.7z"/>
					<path style="&st3;" d="M53.8,67l-4.9,17.2l10-11.2L53.8,67z"/>
					<path style="&st4;" d="M101.4,25.7L72.7,88.9L53.8,67L101.4,25.7z"/>
					<g>
						<path style="&st5;" d="M68.8,71.9c-0.4,0.4-1.1,0.3-1.5-0.1l-8.2-9.4l1.6-1.4l8.2,9.4C69.3,70.8,69.3,71.5,68.8,71.9z"/>
					</g>
					<g>
						<path style="&st5;" d="M72.2,68.3c-0.4,0.4-1.1,0.3-1.5-0.1l-7.9-9l1.6-1.4l7.9,9C72.7,67.3,72.6,67.9,72.2,68.3L72.2,68.3z"
							/>
					</g>
					<g>
						<path style="&st5;" d="M75.5,64.8c-0.4,0.4-1.1,0.3-1.5-0.1L66.4,56l1.6-1.4l7.6,8.7C76,63.7,76,64.4,75.5,64.8L75.5,64.8z"/>
					</g>
					<g>
						<path style="&st5;" d="M78.9,61.2c-0.4,0.4-1.1,0.3-1.5-0.1l-7.2-8.3l1.6-1.4l7.2,8.3C79.4,60.1,79.3,60.8,78.9,61.2
							L78.9,61.2z"/>
					</g>
					<g>
						<path style="&st5;" d="M82.2,57.6c-0.4,0.4-1.1,0.3-1.5-0.1l-6.9-7.9l1.6-1.4l6.9,7.9C82.7,56.5,82.7,57.2,82.2,57.6
							L82.2,57.6z"/>
					</g>
					<g>
						<path style="&st5;" d="M84.2,46.6c-0.4,0.4-1.1,0.3-1.5-0.1l-2.3-2.6l1.6-1.4l2.3,2.6C84.7,45.6,84.6,46.3,84.2,46.6
							L84.2,46.6z"/>
					</g>
					<path style="&st4;" d="M45.3,58.9l56.1-33.2L24,44.7L45.3,58.9z"/>
				</g>
				<g>
					<g>
						<g>
							<path style="&st2;" d="M57.1,42.8H45.3c-7.5,0-13.5-6-13.5-13.5s6-13.5,13.5-13.5s13.5,6,13.5,13.5v11.8
								C58.8,42,58.1,42.8,57.1,42.8z"/>
						</g>
					</g>
					<g>
						<circle style="&st5;" cx="51.5" cy="29.3" r="2"/>
						<circle style="&st5;" cx="45.3" cy="29.3" r="2"/>
						<circle style="&st5;" cx="39.2" cy="29.3" r="2"/>
					</g>
				</g>
			</g>
		</g>
		<g>
			<path style="&st6;" d="M102.5,25.6c0,0,0-0.1,0-0.1c0,0,0-0.1,0-0.1c0,0,0-0.1,0-0.1c0,0,0,0,0-0.1c0,0,0,0,0,0
				c0,0,0-0.1-0.1-0.1c0,0,0,0,0-0.1c0,0-0.1-0.1-0.1-0.1c0,0,0,0,0,0c0,0-0.1,0-0.1-0.1c0,0,0,0-0.1-0.1c0,0,0,0,0,0
				c0,0-0.1,0-0.1-0.1c0,0,0,0-0.1,0c-0.1,0-0.1-0.1-0.2-0.1c0,0,0,0,0,0c0,0-0.1,0-0.1,0c0,0,0,0-0.1,0c0,0-0.1,0-0.1,0
				c0,0,0,0-0.1,0c0,0-0.1,0-0.1,0c0,0,0,0,0,0L59.9,34.8v-5.5c0-8-6.5-14.6-14.6-14.6s-14.6,6.5-14.6,14.6c0,4.6,2.1,8.7,5.5,11.4
				l-12.5,3.1c-0.4,0.1-0.7,0.4-0.8,0.9c-0.1,0.4,0.1,0.8,0.5,1.1l14.9,9.9L27.2,67.7c-0.4,0.4-0.4,1.1,0.1,1.5
				c0.2,0.2,0.5,0.3,0.7,0.3c0.3,0,0.6-0.1,0.8-0.4l11.3-12.4l4.2,2.8l3.6,24.8c0,0,0,0,0,0c0,0,0,0.1,0,0.1c0,0,0,0.1,0,0.1
				c0,0,0,0.1,0,0.1c0,0,0,0.1,0,0.1c0,0,0,0.1,0.1,0.1c0,0,0,0,0.1,0.1c0,0,0,0,0.1,0.1c0,0,0,0,0.1,0.1c0,0,0.1,0,0.1,0.1
				c0,0,0,0,0.1,0.1c0,0,0,0,0,0c0,0,0.1,0,0.1,0.1c0,0,0,0,0,0c0,0,0.1,0,0.1,0c0,0,0,0,0.1,0c0.1,0,0.1,0,0.2,0c0,0,0,0,0,0
				c0.1,0,0.1,0,0.2,0c0,0,0,0,0,0c0,0,0.1,0,0.1,0c0,0,0.1,0,0.1,0c0,0,0.1,0,0.1,0c0,0,0.1,0,0.1-0.1c0,0,0,0,0.1-0.1
				c0,0,0.1-0.1,0.1-0.1c0,0,0,0,0,0l9.1-10.4l8.1,9.4l-16.3,18c-0.4,0.4-0.4,1.1,0.1,1.5c0.2,0.2,0.5,0.3,0.7,0.3
				c0.3,0,0.6-0.1,0.8-0.4l16.2-17.8l3.6,4.2c0.2,0.2,0.5,0.4,0.8,0.4c0.1,0,0.1,0,0.2,0c0.4-0.1,0.7-0.3,0.8-0.6l4-8.9
				c0.2-0.5,0-1.2-0.5-1.4c-0.5-0.2-1.2,0-1.4,0.5l-3.3,7.3L55.3,67.1l43.1-37.4L78.7,73c-0.2,0.5,0,1.2,0.5,1.4
				c0.5,0.2,1.2,0,1.4-0.5l21.7-47.8c0,0,0,0,0-0.1c0,0,0-0.1,0-0.1c0,0,0-0.1,0-0.1c0,0,0-0.1,0-0.1
				C102.5,25.8,102.5,25.7,102.5,25.6C102.5,25.7,102.5,25.6,102.5,25.6L102.5,25.6z M38.7,42.2c2,1,4.2,1.6,6.6,1.6h2.1
				c0.6,0,1.1-0.5,1.1-1.1s-0.5-1.1-1.1-1.1h-2.1c-6.8,0-12.4-5.6-12.4-12.4c0-6.8,5.6-12.4,12.4-12.4s12.4,5.6,12.4,12.4v11.8
				c0,0.3-0.3,0.6-0.6,0.6h-2.5c-0.6,0-1.1,0.5-1.1,1.1s0.5,1.1,1.1,1.1h2.5c1.5,0,2.8-1.2,2.8-2.8V37l34.7-8.6L45.4,57.6L26.7,45.2
				L38.7,42.2z M57.4,72.8l-6.2,7l3-10.7L57.4,72.8z M53.1,66.1C53.1,66.1,53.1,66.1,53.1,66.1L53.1,66.1
				C53.1,66.2,53.1,66.2,53.1,66.1C53,66.2,53,66.3,53,66.3c0,0,0,0.1-0.1,0.1c0,0,0,0.1-0.1,0.1c0,0,0,0.1-0.1,0.1c0,0,0,0,0,0.1
				l0,0c0,0,0,0,0,0L49.3,79l-2.8-19.5l45.2-26.8L53.1,66.1z"/>
			<path style="&st6;" d="M53.9,90.5c-0.4-0.4-1.1-0.4-1.5,0.1l-11.8,13c-0.4,0.4-0.4,1.1,0.1,1.5c0.2,0.2,0.5,0.3,0.7,0.3
				c0.3,0,0.6-0.1,0.8-0.4l11.8-13C54.3,91.6,54.3,90.9,53.9,90.5z"/>
			<path style="&st6;" d="M41.7,72.3c-0.4-0.4-1.1-0.4-1.5,0.1l-19.9,22c-0.4,0.4-0.4,1.1,0.1,1.5c0.2,0.2,0.5,0.3,0.7,0.3
				c0.3,0,0.6-0.1,0.8-0.4l19.9-22C42.2,73.4,42.1,72.7,41.7,72.3L41.7,72.3z"/>
			<path style="&st6;" d="M38.2,81.8l-2.3,2.5c-0.4,0.4-0.4,1.1,0.1,1.5c0.2,0.2,0.5,0.3,0.7,0.3c0.3,0,0.6-0.1,0.8-0.4l2.3-2.5
				c0.4-0.4,0.4-1.1-0.1-1.5C39.3,81.3,38.6,81.4,38.2,81.8z"/>
			<path style="&st6;" d="M23.7,65.6l2.3-2.5c0.4-0.4,0.4-1.1-0.1-1.5c-0.4-0.4-1.1-0.4-1.5,0.1l-2.3,2.5c-0.4,0.4-0.4,1.1,0.1,1.5
				c0.2,0.2,0.5,0.3,0.7,0.3C23.2,66,23.5,65.9,23.7,65.6z"/>
		</g>
	</g>
</g>
<g id="Create" style="&st0;">
	<g style="&st1;">
		<path style="&st2;" d="M93.3,59.7h-5.2c-0.7-3-1.9-5.8-3.5-8.4l3.7-3.7c0.8-0.8,0.8-2.2,0-3l-6.5-6.5c-0.8-0.8-2.1-0.8-3,0
			l-3.7,3.7c-2.6-1.6-5.4-2.8-8.4-3.5v-5.2c0-1.2-0.9-2.1-2.1-2.1h-9.3c-1.2,0-2.1,0.9-2.1,2.1v5.2c-3,0.7-5.8,1.9-8.4,3.5l-3.7-3.7
			c-0.8-0.8-2.2-0.8-3,0l-6.5,6.5c-0.8,0.8-0.8,2.1,0,3l3.7,3.7c-1.6,2.6-2.8,5.4-3.5,8.4h-5.2c-1.2,0-2.1,0.9-2.1,2.1v9.3
			c0,1.2,0.9,2.1,2.1,2.1h5.2c0.7,3,1.9,5.8,3.5,8.4l-3.7,3.7c-0.8,0.8-0.8,2.2,0,3l6.5,6.5c0.8,0.8,2.1,0.8,3,0l3.7-3.7
			c2.6,1.6,5.4,2.8,8.4,3.5v5.2c0,1.2,0.9,2.1,2.1,2.1h9.3c1.2,0,2.1-0.9,2.1-2.1v-5.2c3-0.7,5.8-1.9,8.4-3.5l3.7,3.7
			c0.8,0.8,2.2,0.8,3,0l6.5-6.5c0.8-0.8,0.8-2.1,0-3l-3.7-3.7c1.6-2.6,2.8-5.4,3.5-8.4h5.2c1.2,0,2.1-0.9,2.1-2.1v-9.3
			C95.4,60.6,94.5,59.7,93.3,59.7L93.3,59.7z M60,87.6c-11.7,0-21.1-9.5-21.1-21.1S48.3,45.3,60,45.3s21.1,9.5,21.1,21.1
			S71.7,87.6,60,87.6z"/>
		<path style="&st3;" d="M74.1,82.2c-1.1,1-2.3,1.8-3.5,2.6c-1.5,0.9-3.2,1.6-4.9,2.1c-1.4,0.4-2.8,0.6-4.2,0.7
			c0.5-8.4,3.3-14.9,6.7-14.9C70.8,72.6,73,76.5,74.1,82.2L74.1,82.2z"/>
		<path style="&st5;" d="M73.2,78.5c-0.4,0.1-0.8,0.2-1.3,0.2h-7.5c-0.4,0-0.9-0.1-1.3-0.2c1.2-3.6,3-5.8,5-5.8
			C70.1,72.6,71.9,74.9,73.2,78.5L73.2,78.5z"/>
		<path style="&st5;" d="M65.7,81.2v5.6c1.7-0.5,3.4-1.2,4.9-2.1v-3.6c0-0.6-0.5-1.1-1.1-1.1h-2.8C66.2,80.1,65.7,80.6,65.7,81.2z"
			/>
		<path style="&st4;" d="M44,45.9v34.5c2.9,3.3,6.8,5.7,11.3,6.7V45.8c0-1.1,0.6-2.1,1.6-2.7c4-2.4,6.7-6.7,6.8-11.7
			c0.1-7-4.9-12.9-11.6-14.1c-0.9-0.2-1.6,0.8-1.1,1.6l4.3,8.1c0.6,1,0.1,2.3-0.9,2.9l-8.6,4.5c-1,0.6-2.3,0.2-2.9-0.9l-4.1-7.9
			c-0.4-0.8-1.6-0.7-1.9,0.1c-0.7,1.6-1,3.4-1,5.3c0,5.1,2.7,9.6,6.8,12C43.4,43.7,44,44.7,44,45.9z"/>
		<path style="&st4;" d="M70.6,74.2h-4.9v-26c0-0.8,0.2-1.6,0.6-2.4l1.2-2.3c0.3-0.5,1.1-0.5,1.3,0l1.2,2.3c0.4,0.7,0.6,1.6,0.6,2.4
			L70.6,74.2L70.6,74.2z"/>
		<path style="&st2;" d="M71.9,76.1h-7.5c-1.2,0-2.2-1-2.2-2.2c0-1.2,1-2.2,2.2-2.2h7.5c1.2,0,2.2,1,2.2,2.2
			C74.1,75.1,73.1,76.1,71.9,76.1L71.9,76.1z"/>
		<path style="&st5;" d="M48.9,77.1V54.2c0-0.6,0.5-1.1,1.1-1.1c0.6,0,1.1,0.5,1.1,1.1v22.9c0,0.6-0.5,1.1-1.1,1.1
			C49.4,78.1,48.9,77.7,48.9,77.1z"/>
		<path style="&st6;" d="M93.3,58.6H89c-0.7-2.5-1.7-4.9-3-7.2l3.1-3.1c1.2-1.2,1.2-3.3,0-4.5l-1.2-1.2c-0.4-0.4-1.1-0.4-1.5,0
			c-0.4,0.4-0.4,1.1,0,1.5l1.2,1.2c0.2,0.2,0.3,0.5,0.3,0.7c0,0.3-0.1,0.5-0.3,0.7l-3.7,3.7c-0.4,0.4-0.4,0.9-0.2,1.3
			c1.5,2.5,2.7,5.2,3.4,8.1c0.1,0.5,0.5,0.8,1,0.8h5.2c0.6,0,1,0.5,1,1v9.3c0,0.6-0.5,1-1,1h-5.2c-0.5,0-0.9,0.3-1,0.8
			c-0.7,2.9-1.8,5.6-3.4,8.1c-0.3,0.4-0.2,1,0.2,1.3l3.7,3.7c0.4,0.4,0.4,1.1,0,1.5L81,94c-0.2,0.2-0.5,0.3-0.7,0.3
			c-0.3,0-0.5-0.1-0.7-0.3l-3.7-3.7c-0.4-0.4-0.9-0.4-1.3-0.2c-2.5,1.5-5.2,2.7-8.1,3.4c-0.5,0.1-0.8,0.5-0.8,1v5.2c0,0.6-0.5,1-1,1
			h-9.3c-0.6,0-1-0.5-1-1v-5.2c0-0.5-0.3-0.9-0.8-1c-2.9-0.7-5.6-1.8-8.1-3.4c-0.4-0.3-1-0.2-1.3,0.2L40.4,94
			c-0.2,0.2-0.5,0.3-0.7,0.3c-0.3,0-0.5-0.1-0.7-0.3l-6.5-6.5c-0.4-0.4-0.4-1.1,0-1.5l3.7-3.7c0.4-0.4,0.4-0.9,0.2-1.3
			c-1.5-2.5-2.7-5.2-3.4-8.1c-0.1-0.5-0.5-0.8-1-0.8h-5.2c-0.6,0-1-0.5-1-1v-9.3c0-0.6,0.5-1,1-1h5.2c0.5,0,0.9-0.3,1-0.8
			c0.7-2.9,1.8-5.6,3.4-8.1c0.3-0.4,0.2-1-0.2-1.3l-3.7-3.7c-0.2-0.2-0.3-0.5-0.3-0.7c0-0.3,0.1-0.5,0.3-0.7l5.2-5.2
			c1.1,1.5,2.6,2.8,4.3,3.8c0.6,0.4,1,1.1,1,1.8v6.3c-3.3,4-5.2,9.1-5.2,14.3c0,12.3,10,22.2,22.2,22.2s22.2-10,22.2-22.2
			c0-7.8-3.9-14.8-10.6-18.9c-0.1-0.8-0.3-1.5-0.7-2.2l-1.2-2.3c-0.3-0.6-0.9-1-1.6-1c0,0,0,0,0,0c-0.7,0-1.3,0.4-1.6,1l-1,1.9
			c-1.8-0.5-3.7-0.7-5.6-0.7c-1,0-2,0.1-3,0.2c0.1-0.1,0.3-0.3,0.5-0.4c4.3-2.6,7-7,7.3-11.9c0.5,0,0.9,0.5,0.9,1v5.2
			c0,0.5,0.3,0.9,0.8,1c2.9,0.7,5.6,1.8,8.1,3.4c0.2,0.1,0.4,0.2,0.6,0.2c0.3,0,0.6-0.1,0.8-0.3l3.7-3.7c0.4-0.4,1.1-0.4,1.5,0
			l1.1,1.1c0.4,0.4,1.1,0.4,1.5,0c0.4-0.4,0.4-1.1,0-1.5l-1.1-1.1c-1.2-1.2-3.3-1.2-4.5,0L75,40.4c-2.3-1.3-4.7-2.3-7.2-3v-4.3
			c0-1.7-1.4-3.1-3.1-3.2c-0.2-3.1-1.4-6-3.4-8.4c-2.3-2.8-5.5-4.6-9-5.2c-0.8-0.1-1.6,0.2-2.1,0.9c-0.5,0.7-0.5,1.5-0.2,2.3
			l4.3,8.1c0.1,0.3,0.2,0.5,0.1,0.8s-0.3,0.5-0.5,0.6l-8.6,4.5c-0.3,0.1-0.5,0.2-0.8,0.1c-0.3-0.1-0.5-0.3-0.6-0.5l-4.1-7.9
			c-0.4-0.7-1.2-1.2-2-1.1c-0.8,0-1.6,0.6-1.9,1.3c-0.7,1.8-1.1,3.7-1.1,5.7c0,2.6,0.6,5.1,1.8,7.2l-5.5,5.5c-1.2,1.2-1.2,3.3,0,4.5
			l3.1,3.1c-1.3,2.3-2.3,4.7-3,7.2h-4.3c-1.8,0-3.2,1.4-3.2,3.2v9.3c0,1.8,1.4,3.2,3.2,3.2H31c0.7,2.5,1.7,4.9,3,7.2l-3.1,3.1
			c-1.2,1.2-1.2,3.3,0,4.5l6.5,6.5c0.6,0.6,1.4,0.9,2.2,0.9c0.8,0,1.6-0.3,2.2-0.9l3.1-3.1c2.3,1.3,4.7,2.3,7.2,3v4.3
			c0,1.8,1.4,3.2,3.2,3.2h9.3c1.8,0,3.2-1.4,3.2-3.2v-4.3c2.5-0.7,4.9-1.7,7.2-3l3.1,3.1c0.6,0.6,1.4,0.9,2.2,0.9
			c0.8,0,1.6-0.3,2.2-0.9l6.5-6.5c1.2-1.2,1.2-3.3,0-4.5L86,81.4c1.3-2.3,2.3-4.7,3-7.2h4.3c1.8,0,3.2-1.4,3.2-3.2v-9.3
			C96.5,60.1,95.1,58.6,93.3,58.6L93.3,58.6z M43,55.8V77c-1.9-3.1-3-6.7-3-10.6C39.9,62.7,41,59,43,55.8z M71.9,72.7
			c0.6,0,1.2,0.5,1.2,1.2c0,0.6-0.5,1.2-1.2,1.2h-7.5c-0.6,0-1.2-0.5-1.2-1.2c0-0.6,0.5-1.2,1.2-1.2H71.9z M64.8,77.1h6.6
			c0.6,1.3,1.1,2.9,1.5,4.6c-2.9,2.4-6.4,4.1-10.3,4.6C63,82.7,63.8,79.5,64.8,77.1L64.8,77.1z M80.1,66.4c0,5.2-2,10-5.3,13.6
			c-0.3-1.2-0.7-2.4-1.1-3.4c1-0.6,1.6-1.6,1.6-2.8c0-1.8-1.5-3.3-3.3-3.3h-0.2V50.1C77,53.9,80.1,59.9,80.1,66.4L80.1,66.4z
			 M67.2,46.3l0.9-1.7l0.9,1.7c0.3,0.6,0.5,1.2,0.5,1.9v22.3h-2.8V48.2C66.8,47.6,66.9,46.9,67.2,46.3L67.2,46.3z M37.7,26.3
			l4.1,7.9c0.8,1.6,2.8,2.2,4.4,1.3l8.6-4.5c1.6-0.8,2.2-2.8,1.3-4.4l-4.3-8.1c3,0.5,5.7,2.1,7.7,4.5c2,2.4,3.1,5.4,3,8.5
			c-0.1,4.4-2.4,8.5-6.3,10.8c-1.3,0.8-2.1,2.1-2.1,3.6v34.6c0,0.6,0.5,1.1,1.1,1.1c0.6,0,1.1-0.5,1.1-1.1V46.7
			c1.2-0.2,2.4-0.3,3.6-0.3c1.6,0,3.2,0.2,4.8,0.6c-0.1,0.4-0.1,0.8-0.1,1.3v22.3h-0.2c-1.8,0-3.3,1.5-3.3,3.3
			c0,1.2,0.6,2.2,1.6,2.8c-1.1,2.6-1.9,6-2.2,9.8c-0.2,0-0.3,0-0.5,0c-5.9,0-11.2-2.6-14.9-6.6v-34c0-1.5-0.8-2.9-2.1-3.6
			c-3.9-2.4-6.3-6.5-6.3-11.1C36.8,29.5,37.1,27.8,37.7,26.3L37.7,26.3z"/>
	</g>
</g>
<g id="Shop" style="&st0;">
	<g style="&st1;">
		<path style="&st5;" d="M92.7,38.4v44.9c0,0.6-0.5,1.1-1.1,1.1H26.2v-46c0-2.5,2-4.5,4.5-4.5h57.6C90.7,33.9,92.7,35.9,92.7,38.4
			L92.7,38.4z"/>
		<path style="&st7;" d="M66.7,61.5c-0.3,0-0.6-0.1-0.8-0.4l-6.5-7.5l-6.5,7.5c-0.4,0.5-1.1,0.5-1.5,0.1c-0.4-0.4-0.5-1.1-0.1-1.5
			l7.3-8.5c0.2-0.2,0.5-0.4,0.8-0.4s0.6,0.1,0.8,0.4l7.3,8.5c0.4,0.4,0.3,1.1-0.1,1.5C67.2,61.4,67,61.5,66.7,61.5z"/>
		<g>
			<circle style="&st7;" cx="76.2" cy="53.4" r="1.2"/>
			<circle style="&st7;" cx="79.8" cy="53.4" r="1.2"/>
			<circle style="&st7;" cx="83.4" cy="53.4" r="1.2"/>
			<circle style="&st7;" cx="76.2" cy="57.1" r="1.2"/>
			<circle style="&st7;" cx="79.8" cy="57.1" r="1.2"/>
			<circle style="&st7;" cx="83.4" cy="57.1" r="1.2"/>
		</g>
		<path style="&st7;" d="M70.2,71.2H48.6c-0.6,0-1.1-0.5-1.1-1.1v-8.6c0-0.6,0.5-1.1,1.1-1.1h21.6c0.6,0,1.1,0.5,1.1,1.1v8.6
			C71.3,70.7,70.8,71.2,70.2,71.2z"/>
		<path style="&st3;" d="M92.7,74.6v8.7c0,0.6-0.5,1.1-1.1,1.1H26.2v-9.8H92.7z"/>
		<path style="&st2;" d="M99.8,82.6v2.5c0,2.6-2.1,4.7-4.7,4.7H23.7c-2.6,0-4.7-2.1-4.7-4.7v-2.5c0-1.5,1.2-2.7,2.7-2.7h23
			c0.4,0,0.8,0.2,0.9,0.6l1.4,2.7c0.2,0.4,0.6,0.6,0.9,0.6h22.8c0.4,0,0.8-0.2,0.9-0.6l1.4-2.7c0.2-0.4,0.6-0.6,0.9-0.6h23
			C98.6,79.9,99.8,81.1,99.8,82.6L99.8,82.6z"/>
		<path style="&st8;" d="M91.6,83.8h-9.3c-0.6,0-1.1-0.5-1.1-1.1v-2.8h11.5v2.8C92.6,83.3,92.1,83.8,91.6,83.8z"/>
		<path style="&st8;" d="M36.6,83.8h-9.3c-0.6,0-1.1-0.5-1.1-1.1v-2.8h11.5v2.8C37.6,83.3,37.2,83.8,36.6,83.8L36.6,83.8z"/>
		<path style="&st8;" d="M31.7,47.8c-3.1,0-5.5-2.5-5.5-5.5v-3.8c0-2.5,2-4.5,4.5-4.5h6.6v8.3C37.2,45.3,34.8,47.8,31.7,47.8z"/>
		<path style="&st2;" d="M42.8,47.8c-3.1,0-5.5-2.5-5.5-5.5v-8.3h11.1v8.3C48.3,45.3,45.8,47.8,42.8,47.8z"/>
		<path style="&st8;" d="M53.9,47.8c-3.1,0-5.5-2.5-5.5-5.5v-8.3h11.1v8.3C59.4,45.3,56.9,47.8,53.9,47.8z"/>
		<path style="&st2;" d="M65,47.8c-3.1,0-5.5-2.5-5.5-5.5v-8.3h11.1v8.3C70.5,45.3,68,47.8,65,47.8L65,47.8z"/>
		<path style="&st8;" d="M76,47.8c-3.1,0-5.5-2.5-5.5-5.5v-8.3h11.1v8.3C81.6,45.3,79.1,47.8,76,47.8L76,47.8z"/>
		<path style="&st2;" d="M87.1,47.8c-3.1,0-5.5-2.5-5.5-5.5v-8.3h6.6c2.5,0,4.5,2,4.5,4.5v3.8C92.7,45.3,90.2,47.8,87.1,47.8
			L87.1,47.8z"/>
		<path style="&st2;" d="M30,50.5H13.2c-1.2,0-2.1-1-2.1-2.1V31.6c0-1.2,1-2.1,2.1-2.1H30c1.2,0,2.1,1,2.1,2.1v16.7
			C32.1,49.5,31.2,50.5,30,50.5z"/>
		<path style="&st4;" d="M106.8,64H90c-1.2,0-2.1-1-2.1-2.1V45.1c0-1.2,1-2.1,2.1-2.1h16.7c1.2,0,2.1,1,2.1,2.1v16.7
			C108.9,63,108,64,106.8,64z"/>
		<path style="&st9;" d="M70.2,69.6H48.6c-0.6,0-1.1-0.5-1.1-1.1v-8.6c0-0.6,0.5-1.1,1.1-1.1h21.6c0.6,0,1.1,0.5,1.1,1.1v8.6
			C71.3,69.1,70.8,69.6,70.2,69.6z"/>
		<path style="&st7;" d="M51,67.3h1.3c0.6,0,1.1-0.5,1.1-1.1v-4c0-0.6-0.5-1.1-1.1-1.1H51c-0.6,0-1.1,0.5-1.1,1.1v4
			C49.9,66.8,50.4,67.3,51,67.3z"/>
		<path style="&st7;" d="M56.2,67.3h1.3c0.6,0,1.1-0.5,1.1-1.1v-4c0-0.6-0.5-1.1-1.1-1.1h-1.3c-0.6,0-1.1,0.5-1.1,1.1v4
			C55.1,66.8,55.6,67.3,56.2,67.3L56.2,67.3z"/>
		<path style="&st7;" d="M61.4,67.3h1.3c0.6,0,1.1-0.5,1.1-1.1v-4c0-0.6-0.5-1.1-1.1-1.1h-1.3c-0.6,0-1.1,0.5-1.1,1.1v4
			C60.3,66.8,60.8,67.3,61.4,67.3z"/>
		<path style="&st7;" d="M66.6,67.3h1.3c0.6,0,1.1-0.5,1.1-1.1v-4c0-0.6-0.5-1.1-1.1-1.1h-1.3c-0.6,0-1.1,0.5-1.1,1.1v4
			C65.5,66.8,66,67.3,66.6,67.3z"/>
		<path style="&st7;" d="M35.8,59.9h-3c-0.6,0-1.1-0.5-1.1-1.1c0-0.6,0.5-1.1,1.1-1.1h3c0.6,0,1.1,0.5,1.1,1.1
			C36.9,59.4,36.4,59.9,35.8,59.9z"/>
		<path style="&st7;" d="M41.7,65.7h-8.9c-0.6,0-1.1-0.5-1.1-1.1s0.5-1.1,1.1-1.1h8.9c0.6,0,1.1,0.5,1.1,1.1S42.3,65.7,41.7,65.7z"
			/>
		<path style="&st7;" d="M41.7,69.2h-8.9c-0.6,0-1.1-0.5-1.1-1.1s0.5-1.1,1.1-1.1h8.9c0.6,0,1.1,0.5,1.1,1.1S42.3,69.2,41.7,69.2z"
			/>
		<path style="&st5;" d="M23,38.9h-0.3v-2.2h1.4c0.6,0,1.1-0.5,1.1-1.1c0-0.6-0.5-1.1-1.1-1.1h-1.4V34c0-0.6-0.5-1.1-1.1-1.1
			c-0.6,0-1.1,0.5-1.1,1.1v0.5h-0.3c-1.8,0-3.3,1.5-3.3,3.3c0,1.8,1.5,3.3,3.3,3.3h0.3v2.2h-1.4c-0.6,0-1.1,0.5-1.1,1.1
			c0,0.6,0.5,1.1,1.1,1.1h1.4v0.5c0,0.6,0.5,1.1,1.1,1.1c0.6,0,1.1-0.5,1.1-1.1v-0.5H23c1.8,0,3.3-1.5,3.3-3.3
			C26.3,40.3,24.8,38.9,23,38.9z M20.2,38.9c-0.6,0-1.1-0.5-1.1-1.1s0.5-1.1,1.1-1.1h0.3v2.2L20.2,38.9L20.2,38.9z M23,43.2h-0.3V41
			H23c0.6,0,1.1,0.5,1.1,1.1C24.1,42.7,23.6,43.2,23,43.2z"/>
		<path style="&st8;" d="M61.3,78h-3.7c-0.6,0-1.1,0.5-1.1,1.1s0.5,1.1,1.1,1.1h3.7c0.6,0,1.1-0.5,1.1-1.1S61.9,78,61.3,78z"/>
		<path style="&st6;" d="M106.8,41.8h-13v-3.4v0c0-3.1-2.5-5.6-5.6-5.6h0h-55v-1.3c0-1.8-1.4-3.2-3.2-3.2H13.2
			c-1.8,0-3.2,1.4-3.2,3.2v16.7c0,1.8,1.4,3.2,3.2,3.2h11.9v17c0,0.6,0.5,1.1,1.1,1.1c0.6,0,1.1-0.5,1.1-1.1v-17H30
			c1.7,0,3-1.3,3.2-2.9c1.7-0.4,3.2-1.4,4.1-2.8c1.2,1.8,3.2,3,5.5,3c2.3,0,4.4-1.2,5.5-3c1.2,1.8,3.2,3,5.5,3c2.3,0,4.4-1.2,5.5-3
			c1.2,1.8,3.2,3,5.5,3c2.3,0,4.4-1.2,5.5-3c1.2,1.8,3.2,3,5.5,3s4.4-1.2,5.5-3c1.1,1.7,3,2.9,5.2,3v13c0,1.8,1.4,3.2,3.2,3.2h1.6
			v8.5H26.2c0,0,0,0,0,0c-0.6,0-1.1,0.5-1.1,1.1v4.3h-3.4c-2.1,0-3.8,1.7-3.8,3.8v2.5c0,3.2,2.6,5.8,5.8,5.8h71.4
			c3.2,0,5.8-2.6,5.8-5.8v-2.5c0-2.1-1.7-3.8-3.8-3.8h-3.4V65h13c1.8,0,3.2-1.4,3.2-3.2V45.1C110,43.3,108.6,41.8,106.8,41.8
			L106.8,41.8z M90.1,78.8c-0.6,0-1.1,0.5-1.1,1.1c0,0.6,0.5,1.1,1.1,1.1h1.5v1.7h-9.3V81H84c0.6,0,1.1-0.5,1.1-1.1
			c0-0.6-0.5-1.1-1.1-1.1h-9.9c-0.8,0-1.5,0.4-1.9,1.1l-1.4,2.7H48L46.6,80c-0.4-0.7-1.1-1.1-1.9-1.1H27.2v-3.2h64.4v3.2L90.1,78.8z
			 M36.6,82.7h-9.3V81h9.3L36.6,82.7z M98.7,82.6v2.5c0,2-1.6,3.6-3.6,3.6H23.7c-2,0-3.6-1.6-3.6-3.6v-2.5c0-0.9,0.7-1.6,1.6-1.6
			h3.4v1.7c0,1.2,1,2.1,2.1,2.1h9.3c1.2,0,2.1-1,2.1-2.1V81h6l1.4,2.7c0.4,0.7,1.1,1.1,1.9,1.1h22.8c0.8,0,1.5-0.4,1.9-1.1l1.4-2.7
			h6v1.7c0,1.2,1,2.1,2.1,2.1h9.3c1.2,0,2.1-1,2.1-2.1V81h3.4C98,81,98.7,81.7,98.7,82.6L98.7,82.6z M31,48.3c0,0.6-0.5,1.1-1.1,1.1
			H13.2c-0.6,0-1.1-0.5-1.1-1.1V31.6c0-0.6,0.5-1.1,1.1-1.1H30c0.6,0,1.1,0.5,1.1,1.1V48.3z M33.2,46.4V35h3v7.2
			C36.2,44.1,34.9,45.8,33.2,46.4z M42.8,46.7c-2.5,0-4.5-2-4.5-4.5V35h8.9v7.2C47.3,44.7,45.3,46.7,42.8,46.7z M53.9,46.7
			c-2.5,0-4.5-2-4.5-4.5V35h8.9v7.2C58.3,44.7,56.3,46.7,53.9,46.7L53.9,46.7z M65,46.7c-2.5,0-4.5-2-4.5-4.5V35h8.9v7.2
			C69.4,44.7,67.4,46.7,65,46.7L65,46.7z M76,46.7c-2.5,0-4.5-2-4.5-4.5V35h8.9v7.2C80.5,44.7,78.5,46.7,76,46.7L76,46.7z
			 M82.7,42.2V35h5.5c1.9,0,3.4,1.5,3.4,3.4v3.4H90c-1.8,0-3.2,1.4-3.2,3.2v1.6C84.5,46.5,82.7,44.6,82.7,42.2L82.7,42.2z
			 M107.9,61.8c0,0.6-0.5,1.1-1.1,1.1H90c-0.6,0-1.1-0.5-1.1-1.1V45.1c0-0.6,0.5-1.1,1.1-1.1h16.7c0.6,0,1.1,0.5,1.1,1.1V61.8z"/>
		<path style="&st5;" d="M94.7,52.6c-1.5,0-2.8-1.3-2.8-2.8c0-1.5,1.3-2.8,2.8-2.8c1.5,0,2.8,1.3,2.8,2.8
			C97.5,51.3,96.3,52.6,94.7,52.6z M94.7,49.1c-0.4,0-0.6,0.3-0.6,0.6c0,0.4,0.3,0.6,0.6,0.6c0.4,0,0.6-0.3,0.6-0.6
			C95.4,49.4,95.1,49.1,94.7,49.1z"/>
		<path style="&st5;" d="M102.1,59.9c-1.5,0-2.8-1.3-2.8-2.8s1.3-2.8,2.8-2.8s2.8,1.3,2.8,2.8S103.6,59.9,102.1,59.9z M102.1,56.5
			c-0.4,0-0.6,0.3-0.6,0.6s0.3,0.6,0.6,0.6s0.6-0.3,0.6-0.6S102.4,56.5,102.1,56.5z"/>
		<path style="&st5;" d="M95.4,57.6c-0.3,0-0.6-0.1-0.8-0.3c-0.4-0.4-0.4-1.1,0-1.5l6.1-6.1c0.4-0.4,1.1-0.4,1.5,0
			c0.4,0.4,0.4,1.1,0,1.5l-6.1,6.1C95.9,57.5,95.6,57.6,95.4,57.6z"/>
	</g>
</g>
<g id="Price_x5F_tag" style="&st0;">
	<g style="&st1;">
		<path style="&st2;" d="M95.1,53.5L88,44l-4.2-5.7c-0.7-1-1.9-1.6-3.1-1.6H28c-2.1,0-3.9,1.7-3.9,3.9v30.4c0,2.1,1.7,3.9,3.9,3.9
			h52.6c1.2,0,2.4-0.6,3.1-1.6l11.3-15.2C96.1,56.8,96.1,54.9,95.1,53.5z M82.9,60.9c-2.8,0-5.1-2.3-5.1-5.1c0-2.8,2.3-5.1,5.1-5.1
			c2.8,0,5.1,2.3,5.1,5.1C87.9,58.6,85.7,60.9,82.9,60.9z"/>
		<path style="&st4;" d="M64.6,61.9v13H33.6v-13c0-0.6,0.5-1.2,1.2-1.2h28.6C64.1,60.8,64.6,61.3,64.6,61.9z"/>
		<path style="&st8;" d="M43.4,64.7h-10c-0.5,0-1-0.4-1-1c0-0.5,0.4-1,1-1h10c0.5,0,1,0.4,1,1C44.3,64.3,43.9,64.7,43.4,64.7z"/>
		<path style="&st8;" d="M53.9,68H33.3c-0.5,0-1-0.4-1-1c0-0.5,0.4-1,1-1h20.6c0.5,0,1,0.4,1,1C54.9,67.6,54.5,68,53.9,68L53.9,68z"
			/>
		<path style="&st10;" d="M94.6,58.8v27.9c0,3.8-3.1,6.9-6.9,6.9c-3.8,0-6.9-3.1-6.9-6.9V51.2c0.6-0.3,1.4-0.5,2.1-0.5
			s1.5,0.2,2.1,0.5v35.4c0,1.5,1.2,2.7,2.7,2.7c1.5,0,2.7-1.2,2.7-2.7V64.5L94.6,58.8z"/>
		<path style="&st7;" d="M88.1,27.5v13.4c0,1-0.8,1.8-1.8,1.8H69.9c-1,0-1.8-0.8-1.8-1.8V27.5c0-1,0.8-1.8,1.8-1.8h16.4
			C87.3,25.6,88.1,26.5,88.1,27.5z"/>
		<path style="&st5;" d="M76,31.3h-3.2c-0.5,0-1-0.4-1-1c0-0.5,0.4-1,1-1H76c0.5,0,1,0.4,1,1C77,30.9,76.6,31.3,76,31.3z"/>
		<path style="&st10;" d="M88.1,31v9.9c0,1-0.8,1.8-1.8,1.8H69.9c-1,0-1.8-0.8-1.8-1.8v-3h3.4c0.5,0,1-0.2,1.4-0.6l2.6-2.6
			c0.4-0.4,0.9-0.6,1.4-0.6h7.4c0.3,0,0.5-0.1,0.8-0.2c0.2-0.1,0.4-0.2,0.6-0.4L88.1,31z"/>
		<path style="&st8;" d="M39.8,90c5.2,0,9.4-4.2,9.4-9.4s-4.2-9.4-9.4-9.4h-4.7V90H39.8z"/>
		<circle style="&st4;" cx="35.1" cy="80.6" r="9.4"/>
		<g>
			<path style="&st8;" d="M48.8,44.5c-0.2-0.2-0.5-0.3-0.7-0.3H36.7l-0.6-1.9c-0.1-0.4-0.5-0.7-0.9-0.7h-2.8c-0.5,0-1,0.4-1,1
				s0.4,1,1,1h2.1l2.3,7.3h-0.2c-0.5,0-1,0.4-1,1s0.4,1,1,1h10.2c0.5,0,0.9-0.3,1-0.8l1.2-6.6C49,45,48.9,44.7,48.8,44.5z M46,50.8
				h-7.2l-1.5-4.7h9.6L46,50.8z"/>
			<path style="&st8;" d="M38.7,53.6c-1.4,0-2.5,1.1-2.5,2.5s1.1,2.5,2.5,2.5c1.4,0,2.5-1.1,2.5-2.5C41.2,54.7,40.1,53.6,38.7,53.6z
				 M38.7,56.7c-0.3,0-0.6-0.3-0.6-0.6s0.3-0.6,0.6-0.6c0.3,0,0.6,0.3,0.6,0.6S39,56.7,38.7,56.7z"/>
			<path style="&st8;" d="M45.9,53.6c-1.4,0-2.5,1.1-2.5,2.5s1.1,2.5,2.5,2.5s2.5-1.1,2.5-2.5C48.4,54.7,47.3,53.6,45.9,53.6z
				 M45.9,56.7c-0.3,0-0.6-0.3-0.6-0.6s0.3-0.6,0.6-0.6c0.3,0,0.6,0.3,0.6,0.6S46.2,56.7,45.9,56.7z"/>
		</g>
		<path style="&st5;" d="M36.4,79.6h-0.2v-1.8h1.2c0.5,0,1-0.4,1-1s-0.4-1-1-1h-1.2v-0.4c0-0.5-0.4-1-1-1s-1,0.4-1,1v0.4h-0.2
			c-1.6,0-2.8,1.3-2.8,2.8s1.3,2.8,2.8,2.8h0.2v1.8H33c-0.5,0-1,0.4-1,1s0.4,1,1,1h1.2v0.4c0,0.5,0.4,1,1,1s1-0.4,1-1v-0.4h0.2
			c1.6,0,2.8-1.3,2.8-2.8C39.2,80.9,37.9,79.6,36.4,79.6z M33.9,79.6c-0.5,0-0.9-0.4-0.9-0.9c0-0.5,0.4-0.9,0.9-0.9h0.2v1.8H33.9z
			 M36.4,83.3h-0.2v-1.8h0.2c0.5,0,0.9,0.4,0.9,0.9C37.3,82.9,36.9,83.3,36.4,83.3z"/>
		<path style="&st6;" d="M95.8,53l-7.6-10.2c0.1-0.1,0.2-0.3,0.3-0.4c0.3-0.4,0.5-1,0.5-1.5V27.5c0-1.5-1.2-2.8-2.8-2.8H83
			c-0.5,0-1,0.4-1,1s0.4,1,1,1h3.3c0.5,0,0.8,0.4,0.8,0.8v3.1l-2.3,2.3c-0.1,0.1-0.2,0.2-0.3,0.2c-0.1,0.1-0.3,0.1-0.4,0.1h-7.4
			c-0.8,0-1.5,0.3-2.1,0.9l-2.6,2.6c-0.2,0.2-0.4,0.3-0.7,0.3H69v-9.4c0-0.5,0.4-0.8,0.8-0.8h7.7c0.5,0,1-0.4,1-1s-0.4-1-1-1h-7.7
			c-1.5,0-2.8,1.2-2.8,2.8v8.3H28c-2.7,0-4.8,2.2-4.8,4.8v30.4c0,1.9,1.2,3.7,2.9,4.4c-0.8,1.5-1.3,3.2-1.3,5.1
			c0,5.7,4.6,10.4,10.4,10.4h4.7c5.7,0,10.4-4.6,10.4-10.4c0-1.7-0.4-3.3-1.1-4.7h26.1c0.5,0,1-0.4,1-1c0-0.5-0.4-1-1-1H47.8
			c-1.9-2.3-4.8-3.7-8-3.7h-4.7c-3.2,0-6,1.4-7.9,3.6c-1.2-0.3-2.1-1.5-2.1-2.8V40.6c0-1.6,1.3-2.9,2.9-2.9h39.1v0c0,0,0,0,0,0v3
			c0,1.5,1.2,2.8,2.8,2.8h16.4c0,0,0.1,0,0.1,0l7.8,10.5c0.8,1,0.8,2.4,0,3.5L86,68.7V61c1.8-1.1,2.9-3.1,2.9-5.2
			c0-2.4-1.4-4.5-3.5-5.5c0,0,0,0,0,0c-0.8-0.3-1.6-0.5-2.5-0.5c-0.9,0-1.7,0.2-2.5,0.5c0,0,0,0,0,0c-2.1,1-3.5,3.1-3.5,5.5
			c0,2.1,1.1,4.1,2.9,5.2v25.6c0,4.4,3.5,7.9,7.9,7.9s7.9-3.5,7.9-7.9V59.1l0.3-0.3C97.1,57,97.1,54.7,95.8,53L95.8,53z M48.3,80.6
			c0,4.1-3,7.6-6.9,8.3c2.5-1.9,4.1-4.9,4.1-8.3c0-3.4-1.6-6.4-4.1-8.3C45.3,73,48.3,76.4,48.3,80.6z M35.1,72.1
			c4.6,0,8.4,3.8,8.4,8.4S39.8,89,35.1,89s-8.4-3.8-8.4-8.4S30.5,72.1,35.1,72.1z M71.5,38.8c0.8,0,1.5-0.3,2.1-0.9l2.6-2.6
			c0.2-0.2,0.4-0.3,0.7-0.3h7.4c0.4,0,0.8-0.1,1.1-0.2c0.3-0.1,0.7-0.4,0.9-0.6l0.9-0.9v7.5c0,0.2-0.1,0.3-0.1,0.5
			c-0.2,0.2-0.4,0.4-0.7,0.4H69.9c-0.5,0-0.8-0.4-0.8-0.8v-2.1H71.5z M86,58.5v-5.4c0.6,0.7,1,1.7,1,2.7C87,56.9,86.6,57.8,86,58.5z
			 M78.8,55.8c0-1,0.4-2,1-2.7v5.4C79.1,57.8,78.8,56.8,78.8,55.8z M93.6,86.6c0,3.3-2.7,6-6,6c-3.3,0-6-2.7-6-6V51.9
			c0.4-0.1,0.8-0.2,1.2-0.2c0.4,0,0.8,0.1,1.2,0.2v34.7c0,2,1.6,3.6,3.6,3.6c2,0,3.6-1.6,3.6-3.6V64.8l2.3-3.1V86.6z M89.4,86.6
			c0,0.9-0.8,1.7-1.7,1.7c-0.9,0-1.7-0.8-1.7-1.7V72l3.4-4.6L89.4,86.6L89.4,86.6z"/>
	</g>
</g>
<g id="Fee_x5F_wallet">
	<g>
		<g>
			<path style="&st4;" d="M91.7,40.9v29.8c0,5.3-4.3,9.6-9.6,9.6H43c-2.3,0-4.1-1.8-4.1-4.1V35.4c0-2.3,1.8-4.1,4.1-4.1h39.2
				c2.1,0,4,0.7,5.6,1.8c0.3,0.2,0.6,0.5,0.9,0.8c0.2,0.2,0.3,0.3,0.5,0.5C90.8,36.1,91.7,38.4,91.7,40.9L91.7,40.9z"/>
			<path style="&st2;" d="M30,76.2c0,2.3,1.8,4.1,4.1,4.1h39.2c5.3,0,9.6-4.3,9.6-9.6V40.9c0-5.3-4.3-9.6-9.6-9.6H34.1
				c-2.3,0-4.1,1.8-4.1,4.1L30,76.2z"/>
			<path style="&st8;" d="M93.2,64.8h-22c-1.1,0-2-0.9-2-2V48.7c0-1.1,0.9-2,2-2h22c1.1,0,2,0.9,2,2v14.1
				C95.3,63.9,94.4,64.8,93.2,64.8z"/>
			<path style="&st3;" d="M85.7,64.8H71.2c-1.1,0-2-0.9-2-2V48.7c0-1.1,0.9-2,2-2h14.5c1.1,0,2,0.9,2,2v14.1
				C87.7,63.9,86.8,64.8,85.7,64.8L85.7,64.8z"/>
			<path style="&st8;" d="M43.6,87.9c6.9,0,12.6-5.6,12.6-12.6c0-6.9-5.6-12.6-12.6-12.6h-6.3v25.1L43.6,87.9z"/>
			<circle style="&st4;" cx="37.3" cy="75.4" r="12.6"/>
			<path style="&st5;" d="M54.4,48h-17c-0.7,0-1.3-0.6-1.3-1.3v-3.9c0-0.7,0.6-1.3,1.3-1.3h17c0.7,0,1.3,0.6,1.3,1.3v3.9
				C55.7,47.5,55.1,48,54.4,48z"/>
			<path style="&st5;" d="M46.2,54.4h-8.7c-0.7,0-1.3-0.6-1.3-1.3v-0.9c0-0.7,0.6-1.3,1.3-1.3h8.7c0.7,0,1.3,0.6,1.3,1.3v0.9
				C47.4,53.8,46.9,54.4,46.2,54.4z"/>
			<path style="&st5;" d="M47.7,39.2H37.6c-0.8,0-1.4-0.6-1.4-1.4s0.6-1.4,1.4-1.4h10.1c0.8,0,1.4,0.6,1.4,1.4S48.5,39.2,47.7,39.2z
				"/>
			<path style="&st5;" d="M77.3,52h-3.2C73.5,52,73,51.6,73,51s0.5-1.1,1.1-1.1h3.2c0.6,0,1.1,0.5,1.1,1.1S77.9,52,77.3,52z"/>
			<path style="&st6;" d="M81.2,37.6c0.4,1,0.7,2,0.7,3.3v4.9H71.2c-1.7,0-3,1.3-3,3v14.1c0,1.7,1.3,3,3,3h10.7v4.9
				c0,4.8-3.9,8.6-8.6,8.6H56.5c0.6-1.8,0.7-3.9,0.4-5.9c-1-6.7-6.9-11.5-13.6-11.5h-5.7c-7.1,0-13.2,5.4-13.7,12.5
				c-0.6,7.9,5.7,14.6,13.5,14.6h6.3c5.4,0,10-3.1,12.2-7.7h26.4c5.8,0,10.5-4.7,10.5-10.5V70c0-0.4-0.2-0.8-0.6-0.9
				c-0.7-0.2-1.3,0.3-1.3,0.9v0.7c0,4.8-3.9,8.6-8.6,8.6h-2.9c2.7-1.9,4.5-5.1,4.5-8.6v-4.9h1.9h7.5c1.7,0,3-1.3,3-3V46.6
				c0-1.6-2.1-2.3-3-0.9l0,0h-0.5v-4.9c0-3.5-1.8-7.2-4.4-8.7c-3.8-2-19.5-1.8-19.5-1.8H34.1c-2.8,0-5,2.3-5,5v23.9
				c0,0.4,0.2,0.8,0.6,0.9c0.7,0.2,1.3-0.3,1.3-0.9v-24c0-1.7,1.4-3.1,3.1-3.1h35.5C69.5,32.2,79.4,31.7,81.2,37.6z M25.7,76.3
				c-0.6-7.1,5.4-13.1,12.5-12.5c5.6,0.4,10.2,5,10.6,10.6c0.6,7.1-5.4,13.1-12.5,12.5C30.7,86.5,26.2,81.9,25.7,76.3z M44.3,86.9
				c3.9-2.4,6.5-6.7,6.5-11.6s-2.6-9.2-6.5-11.6c6.1,0.4,10.9,5.4,10.9,11.6C55.2,81.5,50.3,86.6,44.3,86.9L44.3,86.9z M83,37
				c-0.7-1.3-1.6-2.4-3.6-3.8c-1.5-1-2-1.5-3-1.5c-0.5,0,7.9,0,10.9,1.5c2.3,1.6,3.5,4.9,3.5,7.7v4.9h-7v-4.9
				C83.8,39.5,83.5,38.2,83,37L83,37z M71.2,63.9c-0.6,0-1.1-0.5-1.1-1.1V48.7c0-0.6,0.5-1.1,1.1-1.1h14.5c0.6,0,1.1,0.5,1.1,1.1
				v14.1c0,0.6-0.5,1.1-1.1,1.1H71.2z M94.3,62.8c0,0.6-0.5,1.1-1.1,1.1h-4.7c0.1-0.3,0.2-0.7,0.2-1.1V48.7c0-0.4-0.1-0.7-0.2-1.1
				h4.7c0.6,0,1.1,0.5,1.1,1.1V62.8z"/>
		</g>
		<path style="&st5;" d="M38.5,73.6h-0.4v-2.8h1.8c0.8,0,1.5-0.7,1.5-1.5c0-0.8-0.7-1.5-1.5-1.5h-1.8v-0.7c0-0.8-0.7-1.5-1.5-1.5
			s-1.5,0.7-1.5,1.5v0.7h-0.4c-2.4,0-4.4,2-4.4,4.4s2,4.4,4.4,4.4h0.4v2.8h-1.8c-0.8,0-1.5,0.7-1.5,1.5c0,0.8,0.7,1.5,1.5,1.5h1.8
			V83c0,0.8,0.7,1.5,1.5,1.5s1.5-0.7,1.5-1.5v-0.7h0.4c2.4,0,4.4-2,4.4-4.4S40.9,73.6,38.5,73.6z M34.8,73.6c-0.8,0-1.4-0.6-1.4-1.4
			c0-0.8,0.6-1.4,1.4-1.4h0.4v2.8H34.8z M38.5,79.4h-0.4v-2.8h0.4c0.8,0,1.4,0.6,1.4,1.4C39.9,78.7,39.3,79.4,38.5,79.4z"/>
	</g>
</g>
<g id="Scalable_x5F_money" style="&st0;">
	<g style="&st1;">
		<g>
			<g>
				<g>
					<g>
						<g>
							<path style="&st4;" d="M92.3,28.6h-7.4c-1.2,0-2.1,1-2.1,2.1c0,1.2,1,2.1,2.1,2.1h2.3L66.7,53.3h6l17.4-17.4v2.3
								c0,1.2,1,2.1,2.1,2.1c1.2,0,2.1-1,2.1-2.1v-7.4C94.4,29.6,93.4,28.6,92.3,28.6z"/>
						</g>
						<g>
							<path style="&st4;" d="M51.2,28.6h-7.4c-1.2,0-2.1,1-2.1,2.1c0,1.2,1,2.1,2.1,2.1h2.3L25.6,53.3h6l17.4-17.4v2.3
								c0,1.2,1,2.1,2.1,2.1c1.2,0,2.1-1,2.1-2.1v-7.4C53.3,29.6,52.4,28.6,51.2,28.6z"/>
						</g>
					</g>
					<g>
						<g>
							<g>
								<path style="&st3;" d="M96.2,50v38.7c0,1.1-0.9,1.9-1.9,1.9H25.7c-1.1,0-1.9-0.9-1.9-1.9V50c0-1.1,0.9-1.9,1.9-1.9h68.6
									C95.4,48.1,96.2,49,96.2,50L96.2,50z"/>
								<path style="&st2;" d="M91.6,53.6V85c0,0.5-0.4,1-1,1H29.3c-0.5,0-1-0.4-1-1V53.6c0-0.5,0.4-1,1-1h61.4
									C91.2,52.7,91.6,53.1,91.6,53.6L91.6,53.6z"/>
								<path style="&st8;" d="M49.1,72.6L46.5,70c-0.4-0.4-0.4-1,0-1.4l2.6-2.6c0.4-0.4,1-0.4,1.4,0l2.6,2.6c0.4,0.4,0.4,1,0,1.4
									l-2.6,2.6C50,73,49.4,73,49.1,72.6z"/>
								<path style="&st8;" d="M69.6,72.6L67,70c-0.4-0.4-0.4-1,0-1.4l2.6-2.6c0.4-0.4,1-0.4,1.4,0l2.6,2.6c0.4,0.4,0.4,1,0,1.4
									l-2.6,2.6C70.6,73,70,73,69.6,72.6z"/>
								<g>
									<g>
										<path style="&st11;" d="M33.7,80l0.8,0.8l0.8-0.8l-0.8-0.8L33.7,80z"/>
									</g>
								</g>
								<g>
									<path style="&st8;" d="M91.6,72v13c0,0.5-0.4,1-1,1h-13C77.7,78.3,83.9,72,91.6,72L91.6,72z"/>
									<path style="&st8;" d="M42.3,52.7c0,7.7-6.3,14-14,14v-13c0-0.5,0.4-1,1-1H42.3z"/>
								</g>
							</g>
						</g>
						<g>
							<g>
								<circle style="&st4;" cx="60" cy="69.3" r="10.3"/>
							</g>
							<g>
								<g>
									<g>
										<path style="&st5;" d="M61.2,74.1h-4c-0.5,0-1-0.4-1-1c0-0.5,0.4-1,1-1h4c0.5,0,1-0.4,1-1c0-0.5-0.4-1-1-1h-2.5
											c-1.6,0-2.9-1.3-2.9-2.9c0-1.6,1.3-2.9,2.9-2.9h4c0.5,0,1,0.4,1,1c0,0.5-0.4,1-1,1h-4c-0.5,0-1,0.4-1,1c0,0.5,0.4,1,1,1
											h2.5c1.6,0,2.9,1.3,2.9,2.9C64.1,72.8,62.8,74.1,61.2,74.1z"/>
									</g>
									<g>
										<path style="&st5;" d="M60,75.6c-0.5,0-1-0.4-1-1V64c0-0.5,0.4-1,1-1s1,0.4,1,1v10.6C61,75.1,60.5,75.6,60,75.6z"/>
									</g>
								</g>
							</g>
						</g>
						<g>
							<g>
								<g>
									<path style="&st5;" d="M71.3,56.4c-0.6,0-1.1,0.5-1.1,1.1v0c0,0.6,0.5,1.1,1.1,1.1c0.6,0,1.1-0.5,1.1-1.1v0
										C72.4,56.9,71.9,56.4,71.3,56.4z"/>
								</g>
								<path style="&st5;" d="M70.2,61.1c0,0.6,0.5,1.1,1.1,1.1c0.6,0,1.1-0.5,1.1-1.1v0c0-0.6-0.5-1.1-1.1-1.1
									C70.7,60,70.2,60.5,70.2,61.1"/>
								<g>
									<path style="&st5;" d="M75.1,56.4c-0.6,0-1.1,0.5-1.1,1.1v0c0,0.6,0.5,1.1,1.1,1.1c0.6,0,1.1-0.5,1.1-1.1v0
										C76.2,56.9,75.7,56.4,75.1,56.4z"/>
								</g>
								<g>
									<path style="&st5;" d="M78.9,56.4c-0.6,0-1.1,0.5-1.1,1.1v0c0,0.6,0.5,1.1,1.1,1.1c0.6,0,1.1-0.5,1.1-1.1v0
										C80,56.9,79.5,56.4,78.9,56.4z"/>
								</g>
							</g>
							<g>
								<g>
									<path style="&st5;" d="M48.7,82.2c0.6,0,1.1-0.5,1.1-1.1v0c0-0.6-0.5-1.1-1.1-1.1c-0.6,0-1.1,0.5-1.1,1.1v0
										C47.6,81.7,48.1,82.2,48.7,82.2z"/>
								</g>
								<path style="&st5;" d="M49.8,77.5c0-0.6-0.5-1.1-1.1-1.1s-1.1,0.5-1.1,1.1v0c0,0.6,0.5,1.1,1.1,1.1S49.8,78.1,49.8,77.5"/>
								<g>
									<path style="&st5;" d="M44.9,82.2c0.6,0,1.1-0.5,1.1-1.1v0c0-0.6-0.5-1.1-1.1-1.1s-1.1,0.5-1.1,1.1v0
										C43.8,81.7,44.3,82.2,44.9,82.2z"/>
								</g>
								<g>
									<path style="&st5;" d="M41.1,82.2c0.6,0,1.1-0.5,1.1-1.1v0c0-0.6-0.5-1.1-1.1-1.1S40,80.5,40,81.1v0
										C40,81.7,40.5,82.2,41.1,82.2z"/>
								</g>
							</g>
						</g>
					</g>
				</g>
				<g>
					<path style="&st4;" d="M71.7,28.6h-7.4c-1.2,0-2.1,1-2.1,2.1c0,1.2,1,2.1,2.1,2.1h2.3L28.4,71.1h6l35.2-35.2v2.3
						c0,1.2,1,2.1,2.1,2.1c1.2,0,2.1-1,2.1-2.1v-7.4C73.9,29.6,72.9,28.6,71.7,28.6L71.7,28.6z"/>
				</g>
				<g>
					<g>
						<g>
							<path style="&st7;" d="M35,90.6h-16c-0.5,0-1-0.4-1-1V85c0-0.5,0.4-1,1-1h16c0.5,0,1,0.4,1,1v4.6
								C35.9,90.1,35.5,90.6,35,90.6z"/>
							<path style="&st10;" d="M35,84.1h-16c-0.5,0-1-0.4-1-1v-4.6c0-0.5,0.4-1,1-1h16c0.5,0,1,0.4,1,1v4.6
								C35.9,83.6,35.5,84.1,35,84.1z"/>
							<path style="&st7;" d="M35,77.6h-16c-0.5,0-1-0.4-1-1V72c0-0.5,0.4-1,1-1h16c0.5,0,1,0.4,1,1v4.6
								C35.9,77.1,35.5,77.6,35,77.6z"/>
							<path style="&st10;" d="M35,71.1h-16c-0.5,0-1-0.4-1-1v-4.6c0-0.5,0.4-1,1-1h16c0.5,0,1,0.4,1,1v4.6
								C35.9,70.6,35.5,71.1,35,71.1z"/>
							<path style="&st7;" d="M35,64.6h-16c-0.5,0-1-0.4-1-1V59c0-0.5,0.4-1,1-1h16c0.5,0,1,0.4,1,1v4.6
								C35.9,64.1,35.5,64.6,35,64.6z"/>
						</g>
					</g>
					<g>
						<g>
							<path style="&st10;" d="M101.1,90.6H85c-0.5,0-1-0.4-1-1V85c0-0.5,0.4-1,1-1h16c0.5,0,1,0.4,1,1v4.6
								C102,90.1,101.6,90.6,101.1,90.6z"/>
							<g>
								<path style="&st7;" d="M101.1,84.1H85c-0.5,0-1-0.4-1-1v-4.6c0-0.5,0.4-1,1-1h16c0.5,0,1,0.4,1,1v4.6
									C102,83.6,101.6,84.1,101.1,84.1z"/>
								<path style="&st6;" d="M103,78.5c0-1.1-0.9-1.9-1.9-1.9h-3.9V50c0-1.6-1.3-2.9-2.9-2.9H80.2l9-9c0,1.7,1.4,3.1,3.1,3.1
									c1.7,0,3.1-1.4,3.1-3.1v-7.4c0-1.7-1.4-3.1-3.1-3.1h-7.4c-1.7,0-3.1,1.4-3.1,3.1c0,1.7,1.4,3.1,3.1,3.1L75.6,43
									c-0.4,0.4-0.4,1,0,1.4c0.4,0.4,1,0.4,1.4,0l10.8-10.8c0.3-0.3,0.4-0.7,0.2-1c-0.1-0.4-0.5-0.6-0.9-0.6h-2.3
									c-0.6,0-1.2-0.5-1.2-1.2c0-0.6,0.5-1.2,1.2-1.2h7.4c0.6,0,1.2,0.5,1.2,1.2v7.4c0,0.6-0.5,1.2-1.2,1.2s-1.2-0.5-1.2-1.2v-2.3
									c0-0.4-0.2-0.7-0.6-0.9c-0.4-0.1-0.8-0.1-1,0.2L77.5,47.1H59.7l9-9c0,1.7,1.4,3.1,3.1,3.1c1.7,0,3.1-1.4,3.1-3.1v-7.4
									c0-1.7-1.4-3.1-3.1-3.1h-7.4c-1.7,0-3.1,1.4-3.1,3.1c0,1.7,1.4,3.1,3.1,3.1L51,47.1H39.2l9-9c0,1.7,1.4,3.1,3.1,3.1
									c1.7,0,3.1-1.4,3.1-3.1v-7.4c0-1.7-1.4-3.1-3.1-3.1h-7.4c-1.7,0-3.1,1.4-3.1,3.1c0,1.7,1.4,3.1,3.1,3.1L30.4,47.1h-4.7
									c-1.6,0-2.9,1.3-2.9,2.9v7.1h-3.9C17.9,57.1,17,58,17,59v4.6c0,0.3,0.1,0.7,0.3,1c-0.2,0.3-0.3,0.6-0.3,1v4.6
									c0,0.3,0.1,0.7,0.3,1c-0.2,0.3-0.3,0.6-0.3,1v4.6c0,0.3,0.1,0.7,0.3,1c-0.2,0.3-0.3,0.6-0.3,1v4.6c0,0.3,0.1,0.7,0.3,1
									c-0.2,0.3-0.3,0.6-0.3,1v4.6c0,1.1,0.9,1.9,1.9,1.9h22.5c0.5,0,1-0.4,1-1s-0.4-1-1-1h-4.6V85c0-0.3-0.1-0.7-0.3-1
									c0.2-0.3,0.3-0.6,0.3-1v-4.6c0-0.3-0.1-0.7-0.3-1c0.2-0.3,0.3-0.6,0.3-1V72c0-0.3-0.1-0.7-0.3-1c0.2-0.3,0.3-0.6,0.3-1V70
									l20.9-20.9h36.5c0.5,0,1,0.4,1,1v26.6H85c-1.1,0-1.9,0.9-1.9,1.9v4.6c0,0.3,0.1,0.7,0.3,1c-0.2,0.3-0.3,0.6-0.3,1v4.6H47.8
									c-0.5,0-1,0.4-1,1s0.4,1,1,1H85h5h11c1.1,0,1.9-0.9,1.9-1.9V85c0-0.3-0.1-0.7-0.3-1c0.2-0.3,0.3-0.6,0.3-1L103,78.5z
									 M46.7,33.5c0.3-0.3,0.4-0.7,0.2-1c-0.1-0.4-0.5-0.6-0.9-0.6h-2.3c-0.6,0-1.2-0.5-1.2-1.2c0-0.6,0.5-1.2,1.2-1.2h7.4
									c0.6,0,1.2,0.5,1.2,1.2v7.4c0,0.6-0.5,1.2-1.2,1.2c-0.6,0-1.2-0.5-1.2-1.2v-2.3c0-0.4-0.2-0.7-0.6-0.9
									c-0.4-0.1-0.8-0.1-1,0.2L36.5,47.1h-3.3L46.7,33.5z M24.7,50c0-0.5,0.4-1,1-1h23.4L36.9,61.3V59c0-1.1-0.9-1.9-1.9-1.9H24.7
									L24.7,50z M35,76.6h-16V72h16L35,76.6z M35,83.1h-16v-4.6h16L35,83.1z M18.9,65.5h16l0,4.6h-16V65.5z M18.9,59h16l0,4.6h-16
									V59z M18.9,89.6V85h16l0,4.6H18.9z M36.6,64.6c0.1-0.2,0.2-0.4,0.2-0.6l30.4-30.4c0.3-0.3,0.4-0.7,0.2-1
									c-0.1-0.4-0.5-0.6-0.9-0.6h-2.3c-0.6,0-1.2-0.5-1.2-1.2c0-0.6,0.5-1.2,1.2-1.2h7.4c0.6,0,1.2,0.5,1.2,1.2v7.4
									c0,0.6-0.5,1.2-1.2,1.2c-0.6,0-1.2-0.5-1.2-1.2v-2.3c0-0.4-0.2-0.7-0.6-0.9c-0.4-0.1-0.8-0.1-1,0.2L36.9,67.3v-1.8
									C36.9,65.2,36.8,64.8,36.6,64.6L36.6,64.6z M85,78.5h16l0,4.6H85V78.5z M85,89.6V85h16l0,4.6H85z"/>
							</g>
						</g>
					</g>
				</g>
			</g>
		</g>
	</g>
</g>
<g id="Free_x5F_model" style="&st0;">
	<g style="&st1;">
		<path style="&st12;" d="M61,57.8"/>
		<path style="&st8;" d="M62.5,80.5l13.6-13.6c1.9-1.9,5-1.9,7,0c1.9,1.9,1.9,5,0,7l6.5-6.5V56.4c0-2.4,1.9-4.3,4.3-4.3
			c2.4,0,4.3,1.9,4.3,4.3l0,13.8c0,1-0.4,2-1.2,2.8L81.2,89c-0.9,0.9-1.3,2.3-1.1,3.6l2,9.7H60V86.6C60,84.3,60.9,82.1,62.5,80.5
			L62.5,80.5z"/>
		<path style="&st4;" d="M57.5,80.5L43.9,66.9c-1.9-1.9-5-1.9-7,0c-1.9,1.9-1.9,5,0,7l-6.5-6.5V56.4c0-2.4-1.9-4.3-4.3-4.3
			c-2.4,0-4.3,1.9-4.3,4.3l0,13.8c0,1,0.4,2,1.2,2.8L38.8,89c0.9,0.9,1.3,2.3,1.1,3.6l-2,9.7H60V86.6C60,84.3,59.1,82.1,57.5,80.5
			L57.5,80.5z"/>
		<path style="&st6;" d="M84.8,84l-4.3,4.3c-1.2,1.2-1.7,2.9-1.3,4.5l2,9.7c0.1,0.5,0.5,0.8,1,0.8c0.1,0,0.1,0,0.2,0
			c0.5-0.1,0.9-0.6,0.8-1.2l-2-9.7c-0.2-1,0.1-2,0.8-2.7l4.3-4.3c0.4-0.4,0.4-1,0-1.4C85.8,83.6,85.2,83.6,84.8,84L84.8,84z"/>
		<path style="&st6;" d="M88.6,65.5v1.4L85.5,70c-0.1-1.4-0.7-2.8-1.7-3.8c-2.3-2.3-6.1-2.3-8.4,0L61.8,79.8
			c-0.8,0.8-1.4,1.6-1.8,2.5c-0.5-0.9-1.1-1.8-1.8-2.5L44.6,66.2c-2.3-2.3-6.1-2.3-8.4,0c-1.1,1.1-1.6,2.4-1.7,3.8l-3.1-3.1v-1.4
			l0-2.7v-6.3c0-2.9-2.4-5.3-5.3-5.3c-1.4,0-2.8,0.6-3.8,1.6c-1,1-1.6,2.3-1.6,3.8l0,13.8c0,1.3,0.5,2.6,1.4,3.5l15.9,15.9
			c0.7,0.7,1,1.7,0.8,2.7l-2,9.7c-0.1,0.5,0.2,1.1,0.8,1.2c0.1,0,0.1,0,0.2,0c0.5,0,0.9-0.3,1-0.8l2-9.7c0.3-1.6-0.2-3.3-1.3-4.5
			L23.6,72.4c-0.6-0.6-0.9-1.3-0.9-2.1l0-13.8c0-0.9,0.3-1.7,1-2.4c0.6-0.6,1.5-1,2.4-1c1.8,0,3.3,1.5,3.3,3.3v10.9
			c0,0.3,0.1,0.5,0.3,0.7l16,16c0.6,0.6,1,1.5,1,2.3c0,0.5,0.4,1,1,1c0.5,0,1-0.4,1-1c0-1.4-0.6-2.7-1.6-3.7l-9.5-9.5
			c-1.5-1.5-1.5-4,0-5.6c1.5-1.5,4-1.5,5.6,0l13.6,13.6c1.4,1.4,2.2,3.3,2.2,5.4v15.7c0,0.5,0.4,1,1,1s1-0.4,1-1V86.6
			c0-2,0.8-3.9,2.2-5.4l13.6-13.6c1.5-1.5,4-1.5,5.6,0c1.5,1.5,1.5,4,0,5.6l-9.5,9.5c-1,1-1.6,2.3-1.6,3.7c0,0.5,0.4,1,1,1
			s1-0.4,1-1c0-0.9,0.3-1.7,1-2.3l16-16c0.2-0.2,0.3-0.4,0.3-0.7V56.4c0-1.8,1.5-3.3,3.3-3.3c0.9,0,1.7,0.3,2.4,1s1,1.5,1,2.4
			l0,13.8c0,0.8-0.3,1.5-0.9,2.1l-7,7c-0.4,0.4-0.4,1,0,1.4c0.4,0.4,1,0.4,1.4,0l7-7c0.9-0.9,1.4-2.2,1.4-3.5l0-13.8
			c0-1.4-0.5-2.8-1.6-3.8l0,0c-1-1-2.3-1.6-3.8-1.6c-2.9,0-5.3,2.4-5.3,5.3v6.3V65.5z M72.1,46.4 M58.1,22"/>
		<g>
			<path style="&st2;" d="M79.4,31.9v25.3l-10.8,6.3l-11,6.4L35.8,57.2V31.9l21.8-12.6l7.3,4.2l9.5,5.5L79.4,31.9z"/>
			<ellipse style="&st3;" cx="57.6" cy="19.2" rx="2.7" ry="2.7"/>
			<ellipse style="&st3;" cx="57.6" cy="69.8" rx="2.7" ry="2.7"/>
			<ellipse style="&st3;" cx="79.4" cy="31.9" rx="2.7" ry="2.7"/>
			<ellipse style="&st3;" cx="35.8" cy="31.9" rx="2.7" ry="2.7"/>
			<ellipse style="&st3;" cx="35.8" cy="57.2" rx="2.7" ry="2.7"/>
			<path style="&st13;" d="M84.9,61.6H63.1c-0.7,0-1.2-0.6-1.2-1.3V47.9c0-0.7,0.6-1.3,1.2-1.3h21.7c0.7,0,1.2,0.6,1.2,1.3v12.4
				C86.1,61,85.6,61.6,84.9,61.6z"/>
			<ellipse style="&st3;" cx="57.6" cy="44.5" rx="1.4" ry="1.4"/>
			<path style="&st6;" d="M57,36.2c0,0.3,0.3,0.6,0.6,0.6c0.3,0,0.6-0.3,0.6-0.6v-1.5c0-0.3-0.3-0.6-0.6-0.6S57,34.4,57,34.7V36.2z"
				/>
			<path style="&st6;" d="M57.6,27.8c0.3,0,0.6-0.3,0.6-0.6v-1.5c0-0.3-0.3-0.6-0.6-0.6S57,25.4,57,25.7v1.5
				C57,27.6,57.3,27.8,57.6,27.8z"/>
			<path style="&st6;" d="M57,31.7c0,0.3,0.3,0.6,0.6,0.6c0.3,0,0.6-0.3,0.6-0.6v-1.5c0-0.3-0.3-0.6-0.6-0.6S57,29.9,57,30.2V31.7z"
				/>
			<path style="&st6;" d="M57.6,61.2c-0.3,0-0.6,0.3-0.6,0.6v1.5c0,0.3,0.3,0.6,0.6,0.6s0.6-0.3,0.6-0.6v-1.5
				C58.2,61.5,58,61.2,57.6,61.2z"/>
			<path style="&st6;" d="M58.2,52.8c0-0.3-0.3-0.6-0.6-0.6S57,52.5,57,52.8v1.5c0,0.3,0.3,0.6,0.6,0.6s0.6-0.3,0.6-0.6V52.8z"/>
			<path style="&st6;" d="M58.2,48.3c0-0.3-0.3-0.6-0.6-0.6S57,47.9,57,48.3v1.5c0,0.3,0.3,0.6,0.6,0.6s0.6-0.3,0.6-0.6V48.3z"/>
			<path style="&st6;" d="M58.2,57.3c0-0.3-0.3-0.6-0.6-0.6S57,57,57,57.3v1.5c0,0.3,0.3,0.6,0.6,0.6s0.6-0.3,0.6-0.6V57.3z"/>
			<path style="&st6;" d="M57,40.8c0,0.3,0.3,0.6,0.6,0.6c0.3,0,0.6-0.3,0.6-0.6v-1.5c0-0.3-0.3-0.6-0.6-0.6S57,38.9,57,39.3V40.8z"
				/>
			<path style="&st6;" d="M40.9,54.2c0.1,0.2,0.3,0.3,0.5,0.3c0.1,0,0.2,0,0.3-0.1l1.3-0.7c0.3-0.2,0.4-0.6,0.2-0.9
				c-0.2-0.3-0.6-0.4-0.9-0.2l-1.3,0.7C40.8,53.5,40.7,53.9,40.9,54.2L40.9,54.2z"/>
			<path style="&st6;" d="M68.4,38.9c0.1,0,0.2,0,0.3-0.1l1.3-0.7c0.3-0.2,0.4-0.6,0.2-0.9c-0.2-0.3-0.6-0.4-0.9-0.2l-1.3,0.7
				c-0.3,0.2-0.4,0.6-0.2,0.9C68,38.8,68.2,38.9,68.4,38.9z"/>
			<path style="&st6;" d="M64.5,41.1c0.1,0,0.2,0,0.3-0.1l1.3-0.7c0.3-0.2,0.4-0.6,0.2-0.9c-0.2-0.3-0.6-0.4-0.9-0.2L64.2,40
				c-0.3,0.2-0.4,0.6-0.2,0.9C64.1,41,64.3,41.1,64.5,41.1z"/>
			<path style="&st6;" d="M60.7,43.4c0.1,0,0.2,0,0.3-0.1l1.3-0.7c0.3-0.2,0.4-0.6,0.2-0.9c-0.2-0.3-0.6-0.4-0.9-0.2l-1.3,0.7
				c-0.3,0.2-0.4,0.6-0.2,0.9C60.3,43.3,60.5,43.4,60.7,43.4z"/>
			<path style="&st6;" d="M72.2,36.7c0.1,0,0.2,0,0.3-0.1l1.3-0.7c0.3-0.2,0.4-0.6,0.2-0.9c-0.2-0.3-0.6-0.4-0.9-0.2l-1.3,0.7
				c-0.3,0.2-0.4,0.6-0.2,0.9C71.8,36.6,72,36.7,72.2,36.7z"/>
			<path style="&st6;" d="M52.4,47.5c0.1,0.2,0.3,0.3,0.5,0.3c0.1,0,0.2,0,0.3-0.1l1.3-0.7c0.3-0.2,0.4-0.6,0.2-0.9
				c-0.2-0.3-0.6-0.4-0.9-0.2l-1.3,0.7C52.4,46.8,52.3,47.2,52.4,47.5L52.4,47.5z"/>
			<path style="&st6;" d="M44.7,52c0.1,0.2,0.3,0.3,0.5,0.3c0.1,0,0.2,0,0.3-0.1l1.3-0.7c0.3-0.2,0.4-0.6,0.2-0.9
				c-0.2-0.3-0.6-0.4-0.9-0.2L45,51.1C44.7,51.3,44.6,51.7,44.7,52L44.7,52z"/>
			<path style="&st6;" d="M48.6,49.7c0.1,0.2,0.3,0.3,0.5,0.3c0.1,0,0.2,0,0.3-0.1l1.3-0.7c0.3-0.2,0.4-0.6,0.2-0.9
				c-0.2-0.3-0.6-0.4-0.9-0.2l-1.3,0.7C48.5,49.1,48.4,49.4,48.6,49.7L48.6,49.7z"/>
			<path style="&st6;" d="M52.8,42.5l1.3,0.7c0.1,0.1,0.2,0.1,0.3,0.1c0.2,0,0.4-0.1,0.5-0.3c0.2-0.3,0.1-0.7-0.2-0.9l-1.3-0.7
				c-0.3-0.2-0.7-0.1-0.9,0.2C52.4,41.9,52.5,42.3,52.8,42.5L52.8,42.5z"/>
			<path style="&st6;" d="M41.2,35.7l1.3,0.7c0.1,0.1,0.2,0.1,0.3,0.1c0.2,0,0.4-0.1,0.5-0.3c0.2-0.3,0.1-0.7-0.2-0.9l-1.3-0.7
				c-0.3-0.2-0.7-0.1-0.9,0.2C40.8,35.2,40.9,35.6,41.2,35.7L41.2,35.7z"/>
			<path style="&st6;" d="M48.9,40.2l1.3,0.7c0.1,0.1,0.2,0.1,0.3,0.1c0.2,0,0.4-0.1,0.5-0.3c0.2-0.3,0.1-0.7-0.2-0.9l-1.3-0.7
				c-0.3-0.2-0.7-0.1-0.9,0.2C48.5,39.7,48.6,40,48.9,40.2L48.9,40.2z"/>
			<path style="&st6;" d="M45.1,38l1.3,0.7c0.1,0.1,0.2,0.1,0.3,0.1c0.2,0,0.4-0.1,0.5-0.3c0.2-0.3,0.1-0.7-0.2-0.9l-1.3-0.7
				c-0.3-0.2-0.7-0.1-0.9,0.2C44.7,37.4,44.8,37.8,45.1,38L45.1,38z"/>
			<path style="&st6;" d="M64.3,22.4l-3.5-2c0.1-0.3,0.2-0.7,0.2-1.1c0-1.8-1.5-3.3-3.3-3.3c-1.8,0-3.3,1.5-3.3,3.3
				c0,0.4,0.1,0.8,0.2,1.1l-16.2,9.4c-0.6-0.7-1.5-1.2-2.5-1.2c-1.8,0-3.3,1.5-3.3,3.3c0,1.6,1.2,3,2.7,3.3v3.1l0,12.6v3.1
				c-1.5,0.3-2.7,1.6-2.7,3.3c0,1.8,1.5,3.3,3.3,3.3c1,0,1.9-0.4,2.5-1.2l16.2,9.4c-0.1,0.3-0.2,0.7-0.2,1.1c0,1.8,1.5,3.3,3.3,3.3
				c1.8,0,3.3-1.5,3.3-3.3c0-0.4-0.1-0.8-0.2-1.1l11.2-6.5c0,0,0,0,0.1,0h12.9c1,0,1.9-0.8,1.9-1.9V47.9c0-1-0.8-1.9-1.9-1.9l0,0
				h-4.8V35.2c1.5-0.3,2.7-1.6,2.7-3.3c0-1.8-1.5-3.3-3.3-3.3c-1,0-1.9,0.4-2.5,1.2l-2-1.2L64.3,22.4z M74.1,29.5l2.2,1.3
				c-0.1,0.3-0.2,0.7-0.2,1.1c0,0.4,0.1,0.8,0.2,1.1l-0.5,0.3c-0.3,0.2-0.4,0.6-0.2,0.9c0.1,0.2,0.3,0.3,0.5,0.3
				c0.1,0,0.2,0,0.3-0.1l0.5-0.3c0.5,0.6,1.1,1,1.9,1.1v11.5c0,0.3,0.3,0.6,0.6,0.6h5.4c0.3,0,0.6,0.3,0.6,0.6v12.4
				c0,0.3-0.3,0.6-0.6,0.6H63.1c-0.3,0-0.6-0.3-0.6-0.6V47.9c0-0.3,0.3-0.6,0.6-0.6H76c0.3,0,0.6-0.3,0.6-0.6S76.4,46,76,46H63.1
				c-0.4,0-0.8,0.1-1.1,0.4l-0.9-0.5c-0.3-0.2-0.7-0.1-0.9,0.2c-0.2,0.3-0.1,0.7,0.2,0.9l0.8,0.5c0,0.1-0.1,0.3-0.1,0.5v12.4
				c0,1,0.8,1.9,1.9,1.9h6.4l-9.4,5.4c-0.5-0.6-1.1-1-1.9-1.1v-0.2c0-0.3-0.3-0.6-0.6-0.6S57,66,57,66.3v0.2
				c-0.7,0.1-1.4,0.5-1.9,1.1l-16.2-9.4c0.1-0.3,0.2-0.7,0.2-1.1c0-0.4-0.1-0.8-0.2-1.1l0.3-0.2c0.3-0.2,0.4-0.6,0.2-0.9
				c-0.2-0.3-0.6-0.4-0.9-0.2L38.3,55c-0.5-0.6-1.1-1-1.9-1.1v-3.1l0-12.6v-3.1c0.7-0.1,1.4-0.5,1.9-1.1l0.3,0.2
				c0.1,0.1,0.2,0.1,0.3,0.1c0.2,0,0.4-0.1,0.5-0.3c0.2-0.3,0.1-0.7-0.2-0.9L38.9,33c0.1-0.3,0.2-0.7,0.2-1.1c0-0.4-0.1-0.8-0.2-1.1
				l16.2-9.4c0.5,0.6,1.1,1,1.9,1.1v0.2c0,0.3,0.3,0.6,0.6,0.6c0.3,0,0.6-0.3,0.6-0.6v-0.2c0.7-0.1,1.4-0.5,1.9-1.1l4.1,2.4
				L74.1,29.5z M35.8,34c-1.1,0-2.1-0.9-2.1-2.1s0.9-2.1,2.1-2.1c1.1,0,2.1,0.9,2.1,2.1S36.9,34,35.8,34z M57.6,21.3
				c-1.1,0-2.1-0.9-2.1-2.1s0.9-2.1,2.1-2.1s2.1,0.9,2.1,2.1C59.7,20.4,58.7,21.3,57.6,21.3z M77.4,31.9c0-1.1,0.9-2.1,2.1-2.1
				c1.1,0,2.1,0.9,2.1,2.1S80.6,34,79.4,34C78.3,34,77.4,33,77.4,31.9z M35.8,59.2c-1.1,0-2.1-0.9-2.1-2.1c0-1.1,0.9-2.1,2.1-2.1
				c1.1,0,2.1,0.9,2.1,2.1C37.8,58.3,36.9,59.2,35.8,59.2z M57.6,71.9c-1.1,0-2.1-0.9-2.1-2.1c0-1.1,0.9-2.1,2.1-2.1
				s2.1,0.9,2.1,2.1C59.7,71,58.7,71.9,57.6,71.9z"/>
			<path style="&st6;" d="M55.6,44.5c0,1.1,0.9,2,2,2s2-0.9,2-2c0-1.1-0.9-2-2-2C56.5,42.5,55.6,43.4,55.6,44.5z M57.6,43.7
				c0.4,0,0.8,0.4,0.8,0.8s-0.3,0.8-0.8,0.8s-0.8-0.4-0.8-0.8S57.2,43.7,57.6,43.7z"/>
			<path style="&st5;" d="M80.3,52.8H80v-1.5h1c0.5,0,0.8-0.4,0.8-0.8s-0.4-0.8-0.8-0.8h-1v-0.4c0-0.5-0.4-0.8-0.8-0.8
				s-0.8,0.4-0.8,0.8v0.4h-0.2c-1.3,0-2.4,1.1-2.4,2.4s1.1,2.4,2.4,2.4h0.2V56h-1c-0.5,0-0.8,0.4-0.8,0.8s0.4,0.8,0.8,0.8h1v0.4
				c0,0.5,0.4,0.8,0.8,0.8s0.8-0.4,0.8-0.8v-0.4h0.2c1.3,0,2.4-1.1,2.4-2.4S81.6,52.8,80.3,52.8z M78.2,52.8c-0.4,0-0.8-0.3-0.8-0.8
				c0-0.4,0.3-0.8,0.8-0.8h0.2v1.5H78.2z M80.3,56H80v-1.5h0.2c0.4,0,0.8,0.3,0.8,0.8C81,55.7,80.7,56,80.3,56z"/>
			<text transform="matrix(0.9715 0 0 1 65.9414 58.5583)" style="&st5; &st14; &st15;">0</text>
		</g>
	</g>
</g>
<g id="Time_x5F_watch" style="&st0;">
	<g style="&st1;">
		<path style="&st4;" d="M56.7,25.9h6.6v9.7h-6.6L56.7,25.9z"/>
		<path style="&st3;" d="M65.8,40.7v-5.6c0-1-0.8-1.9-1.9-1.9h-7.9c-1,0-1.9,0.8-1.9,1.9v5.6H65.8z"/>
		<path style="&st4;" d="M89.8,67.1c0,16.4-13.3,29.8-29.8,29.8S30.2,83.6,30.2,67.1S43.6,37.4,60,37.4c5.9,0,11.3,1.7,15.9,4.6
			c5,3.2,9.1,7.9,11.4,13.4C88.9,59,89.8,63,89.8,67.1L89.8,67.1z"/>
		<path style="&st2;" d="M82.5,67.1c0,12.4-10.1,22.5-22.5,22.5S37.5,79.6,37.5,67.1S47.6,44.6,60,44.6c3.9,0,7.5,1,10.7,2.7
			c4.9,2.7,8.7,7.1,10.6,12.4C82.1,62,82.5,64.5,82.5,67.1L82.5,67.1z"/>
		<path style="&st2;" d="M66.2,26.8H53.8c-1,0-1.9-0.8-1.9-1.9v-4.4c0-1,0.8-1.9,1.9-1.9h12.4c1,0,1.9,0.8,1.9,1.9V25
			C68.1,26,67.2,26.8,66.2,26.8z"/>
		<g>
			<circle style="&st5;" cx="41.7" cy="67.1" r="1.1"/>
			<circle style="&st5;" cx="78.3" cy="67.1" r="1.1"/>
			<circle style="&st5;" cx="60" cy="48.8" r="1.1"/>
			<circle style="&st5;" cx="60" cy="85.4" r="1.1"/>
			<circle style="&st5;" cx="44.1" cy="76.3" r="1.1"/>
			<circle style="&st5;" cx="75.9" cy="58" r="1.1"/>
			<circle style="&st5;" cx="44.1" cy="58" r="1.1"/>
			<circle style="&st5;" cx="75.9" cy="76.3" r="1.1"/>
			<circle style="&st5;" cx="50.8" cy="51.3" r="1.1"/>
			<circle style="&st5;" cx="69.2" cy="83" r="1.1"/>
			<circle style="&st5;" cx="69.2" cy="51.3" r="1.1"/>
			<circle style="&st5;" cx="50.8" cy="83" r="1.1"/>
		</g>
		<path style="&st8;" d="M60,67.1l-2.8-2.8c-0.2-0.2-0.3-0.5-0.3-0.8l2.4-13c0.1-0.7,1.2-0.7,1.3,0l2.4,13c0.1,0.3,0,0.6-0.3,0.8
			L60,67.1z"/>
		<path style="&st8;" d="M60,67.1l3.7,1c0.3,0.1,0.6,0.3,0.7,0.6l2.7,9.1c0.2,0.7-0.6,1.1-1.1,0.6l-6.7-6.7
			c-0.2-0.2-0.3-0.6-0.2-0.9L60,67.1z"/>
		<circle style="&st3;" cx="60" cy="67.1" r="2.8"/>
		<path style="&st3;" d="M88.7,48.3c0.4-5.6-4.3-10.3-9.9-9.9c-4.6,0.3-8.3,3.9-8.7,8.5c-0.2,2.2,0.4,4.3,1.5,5.9l-1.3,3
			c-0.3,0.6,0.4,1.2,1,1l3-1.3c1.7,1.1,3.7,1.7,5.9,1.5C84.8,56.6,88.4,52.9,88.7,48.3L88.7,48.3z"/>
		<circle style="&st5;" cx="75.9" cy="47.6" r="1"/>
		<circle style="&st5;" cx="79.6" cy="47.6" r="1"/>
		<circle style="&st5;" cx="83.3" cy="47.6" r="1"/>
		<path style="&st8;" d="M45.7,100.5c5,0,9.1-4.1,9.1-9.1s-4.1-9.1-9.1-9.1h-4.5v18.2H45.7z"/>
		<circle style="&st3;" cx="41.2" cy="91.4" r="9.1"/>
		<path style="&st7;" d="M50.1,68.1h-2.7c-0.5,0-0.9-0.4-0.9-0.9s0.4-0.9,0.9-0.9h2.7c0.5,0,0.9,0.4,0.9,0.9S50.6,68.1,50.1,68.1z"
			/>
		<path style="&st7;" d="M72.6,68.1h-2.7c-0.5,0-0.9-0.4-0.9-0.9s0.4-0.9,0.9-0.9h2.7c0.5,0,0.9,0.4,0.9,0.9S73.1,68.1,72.6,68.1z"
			/>
		<path style="&st5;" d="M56.3,24.7c-0.5,0-0.9-0.4-0.9-0.9v-2c0-0.5,0.4-0.9,0.9-0.9c0.5,0,0.9,0.4,0.9,0.9v2
			C57.3,24.3,56.8,24.7,56.3,24.7z"/>
		<path style="&st5;" d="M60,24.7c-0.5,0-0.9-0.4-0.9-0.9v-2c0-0.5,0.4-0.9,0.9-0.9s0.9,0.4,0.9,0.9v2C60.9,24.3,60.5,24.7,60,24.7z
			"/>
		<path style="&st5;" d="M63.7,24.7c-0.5,0-0.9-0.4-0.9-0.9v-2c0-0.5,0.4-0.9,0.9-0.9s0.9,0.4,0.9,0.9v2
			C64.6,24.3,64.2,24.7,63.7,24.7z"/>
		<path style="&st6;" d="M87.7,53.8c1.1-1.5,1.8-3.4,2-5.4c0.2-2.9-0.9-5.8-3-7.9s-5-3.2-7.9-3c-2,0.1-3.8,0.8-5.4,2
			c-2.1-1-4.3-1.8-6.6-2.3v-2.1c0-1.5-1.1-2.7-2.5-2.8v-4.5h2c1.5,0,2.8-1.3,2.8-2.8v-4.4c0-1.5-1.3-2.8-2.8-2.8H53.8
			c-1.5,0-2.8,1.3-2.8,2.8V25c0,1.5,1.3,2.8,2.8,2.8h2v4.5c-1.4,0.1-2.5,1.3-2.5,2.8v2.1c-13.7,3.1-24,15.3-24,30
			c0,6.1,1.8,11.9,5.1,16.9c-2,1.8-3.2,4.5-3.2,7.4c0,1.6,0.4,3.3,1.2,4.7c0.2,0.5,0.8,0.6,1.3,0.4c0.5-0.2,0.6-0.8,0.4-1.3
			c-0.6-1.2-0.9-2.5-0.9-3.8c0-4.5,3.7-8.1,8.1-8.1s8.1,3.7,8.1,8.1c0,4.5-3.7,8.1-8.1,8.1c-1.4,0-2.7-0.3-3.9-1
			c-0.5-0.2-1-0.1-1.3,0.4c-0.2,0.5-0.1,1,0.4,1.3c1.5,0.8,3.1,1.2,4.8,1.2h4.5c3.4,0,6.3-1.7,8.2-4.2c2,0.4,4.1,0.6,6.2,0.6
			c16.9,0,30.7-13.8,30.7-30.7C90.7,62.4,89.7,57.9,87.7,53.8L87.7,53.8z M78.9,39.4c2.4-0.2,4.8,0.7,6.5,2.4
			c1.7,1.7,2.6,4.1,2.4,6.5c-0.3,4.1-3.5,7.4-7.6,7.8c-1.9,0.2-3.8-0.3-5.3-1.4c-0.2-0.1-0.3-0.2-0.5-0.2c-0.1,0-0.3,0-0.4,0.1
			l-2.5,1.1l1.1-2.5c0.1-0.3,0.1-0.6-0.1-0.9c-1.1-1.6-1.5-3.4-1.4-5.3C71.4,42.9,74.8,39.6,78.9,39.4L78.9,39.4z M52.9,25v-4.4
			c0-0.5,0.4-0.9,0.9-0.9h12.4c0.5,0,0.9,0.4,0.9,0.9V25c0,0.5-0.4,0.9-0.9,0.9H53.8C53.3,25.9,52.9,25.5,52.9,25z M62.3,27.8v4.5
			h-4.7v-4.5H62.3z M55.1,35.1c0-0.5,0.4-0.9,0.9-0.9h7.9c0.5,0,0.9,0.4,0.9,0.9v1.7c-1.6-0.3-3.2-0.4-4.9-0.4
			c-1.7,0-3.3,0.1-4.9,0.4L55.1,35.1L55.1,35.1z M31.2,67.1c0-15.9,12.9-28.8,28.8-28.8c4.1,0,8.1,0.9,11.9,2.5
			c-1.2,1.3-2.1,3-2.5,4.8c-2.1-0.9-4.3-1.5-6.6-1.8c-0.5-0.1-1,0.3-1,0.8c-0.1,0.5,0.3,1,0.8,1c2.3,0.3,4.5,0.9,6.6,1.9
			c0,1.9,0.5,3.7,1.4,5.3l-1.1,2.5c-0.3,0.6-0.1,1.4,0.3,1.9c0.5,0.5,1.2,0.6,1.9,0.3l2.5-1.1c1.6,0.9,3.4,1.4,5.2,1.4
			c0,0,0.1,0,0.1,0c1.4,2.9,2,6,2,9.2c0,11.9-9.7,21.6-21.6,21.6c-1.6,0-3.3-0.2-4.8-0.5c-1.4-3.9-5.1-6.8-9.5-6.8h-1.9
			c-3.5-3.9-5.4-9-5.4-14.3c0-11,8.2-20.2,19.1-21.4c0.5-0.1,0.9-0.5,0.8-1c-0.1-0.5-0.5-0.9-1-0.8c-11.8,1.4-20.7,11.4-20.7,23.3
			c0,5.2,1.7,10.2,4.8,14.3h-0.2c0,0,0,0,0,0c-1.9,0-3.8,0.6-5.3,1.5C32.8,78.2,31.2,72.8,31.2,67.1L31.2,67.1z M47.2,99.4
			c2.4-1.8,4-4.7,4-8s-1.6-6.2-4-8c3.8,0.7,6.7,4,6.7,8C53.8,95.4,51,98.7,47.2,99.4z M60,96c-1.7,0-3.5-0.2-5.2-0.5
			c0.6-1.3,0.9-2.6,0.9-4.1c0-0.4,0-0.8-0.1-1.2c1.4,0.3,2.9,0.4,4.4,0.4c12.9,0,23.5-10.5,23.5-23.5c0-3.3-0.7-6.4-2-9.4
			c1.8-0.4,3.5-1.3,4.8-2.5C88,59,88.8,63,88.8,67.1C88.8,83,75.9,96,60,96L60,96z"/>
		<path style="&st6;" d="M56.6,65l0.2,0.2c-0.3,0.5-0.5,1.2-0.5,1.9c0,1.4,0.8,2.6,1.9,3.2l-0.1,0.3c-0.2,0.6,0,1.3,0.5,1.8l6.7,6.7
			c0.3,0.3,0.7,0.5,1.1,0.5c0.3,0,0.6-0.1,0.8-0.2c0.6-0.4,0.9-1.1,0.7-1.8l-2.7-9.1c-0.2-0.6-0.7-1.1-1.3-1.3l-0.3-0.1
			c0-0.7-0.2-1.3-0.5-1.8l0.2-0.2c0.4-0.4,0.6-1.1,0.5-1.7l-2.4-13c-0.1-0.8-0.8-1.3-1.6-1.3s-1.4,0.5-1.6,1.3l-2.4,13
			C55.9,64,56.1,64.6,56.6,65z M60,65.3c1,0,1.8,0.8,1.8,1.8c0,1-0.8,1.8-1.8,1.8s-1.8-0.8-1.8-1.8C58.2,66.1,59,65.3,60,65.3z
			 M65.9,77.1l-5.9-5.9l0.1-0.3c1.4,0,2.6-0.8,3.2-1.9l0.3,0.1L65.9,77.1z M60,52.2l2.1,11.5l-0.2,0.2c-0.5-0.3-1.2-0.5-1.9-0.5
			s-1.3,0.2-1.9,0.5l-0.2-0.2L60,52.2z"/>
		<path style="&st5;" d="M42.4,90.5h-0.2v-1.7h1.1c0.5,0,0.9-0.4,0.9-0.9s-0.4-0.9-0.9-0.9h-1.1v-0.4c0-0.5-0.4-0.9-0.9-0.9
			s-0.9,0.4-0.9,0.9v0.4h-0.2c-1.5,0-2.7,1.2-2.7,2.7s1.2,2.7,2.7,2.7h0.2v1.7h-1.1c-0.5,0-0.9,0.4-0.9,0.9c0,0.5,0.4,0.9,0.9,0.9
			h1.1v0.4c0,0.5,0.4,0.9,0.9,0.9s0.9-0.4,0.9-0.9v-0.4h0.2c1.5,0,2.7-1.2,2.7-2.7S43.9,90.5,42.4,90.5z M40.1,90.5
			c-0.5,0-0.9-0.4-0.9-0.9c0-0.5,0.4-0.9,0.9-0.9h0.2v1.7H40.1z M42.4,94.1h-0.2v-1.7h0.2c0.5,0,0.9,0.4,0.9,0.9
			C43.3,93.7,42.9,94.1,42.4,94.1z"/>
	</g>
</g>
<g id="Increase_x5F_sales" style="&st0;">
	<g style="&st1;">
		<path style="&st2;" d="M83,22.2V97c0,2.2-1.7,3.9-3.9,3.9H40.9c-2.2,0-3.9-1.7-3.9-3.9V22.2c0-2.2,1.7-3.9,3.9-3.9h38.3
			C81.3,18.3,83,20,83,22.2z"/>
		<path style="&st7;" d="M75.6,39.7v12.4c0,0.5-0.4,0.9-0.9,0.9H44.9c-0.5,0-0.9-0.4-0.9-0.9V39.7c0-0.5,0.4-0.9,0.9-0.9h29.8
			C75.2,38.8,75.6,39.2,75.6,39.7L75.6,39.7z"/>
		<path style="&st4;" d="M83,28.3v-6.2c0-2.2-1.7-3.9-3.9-3.9H40.9c-2.2,0-3.9,1.7-3.9,3.9v6.2H83z"/>
		<circle style="&st11;" cx="43.4" cy="23.5" r="1"/>
		<circle style="&st11;" cx="47.1" cy="23.5" r="1"/>
		<circle style="&st11;" cx="50.8" cy="23.5" r="1"/>
		<circle style="&st4;" cx="82.8" cy="36.5" r="13.2"/>
		<circle style="&st4;" cx="38.6" cy="65" r="13.2"/>
		<path style="&st3;" d="M87.3,81.6l4.5-4.8c0.4-0.4,1-0.4,1.4,0l4.6,4.8c0.6,0.6,0.1,1.6-0.7,1.6h-2.3v7.1c0,0.5-0.4,0.9-0.9,0.9
			h-2.7c-0.5,0-0.9-0.4-0.9-0.9v-7.1H88C87.2,83.1,86.8,82.2,87.3,81.6L87.3,81.6z"/>
		<path style="&st3;" d="M22.2,39.3l4.5-4.8c0.4-0.4,1-0.4,1.4,0l4.6,4.8c0.6,0.6,0.1,1.6-0.7,1.6h-2.3V48c0,0.5-0.4,0.9-0.9,0.9
			h-2.7c-0.5,0-0.9-0.4-0.9-0.9v-7.1h-2.3C22.1,40.8,21.6,39.9,22.2,39.3z"/>
		<path style="&st5;" d="M46.8,39.7h-3.1c-0.5,0-0.9-0.4-0.9-0.9s0.4-0.9,0.9-0.9h3.1c0.5,0,0.9,0.4,0.9,0.9S47.3,39.7,46.8,39.7z"
			/>
		<path style="&st5;" d="M53.3,45.5h-9.6c-0.5,0-0.9-0.4-0.9-0.9s0.4-0.9,0.9-0.9h9.6c0.5,0,0.9,0.4,0.9,0.9S53.8,45.5,53.3,45.5z"
			/>
		<path style="&st5;" d="M57.9,48.6H43.7c-0.5,0-0.9-0.4-0.9-0.9s0.4-0.9,0.9-0.9h14.2c0.5,0,0.9,0.4,0.9,0.9S58.4,48.6,57.9,48.6z"
			/>
		<path style="&st4;" d="M57.1,85.8v1.5c0,0.4-0.3,0.7-0.7,0.7h-1.2c-0.4,0-0.7-0.3-0.7-0.7v-1.5c0-0.4,0.3-0.7,0.7-0.7h1.2
			C56.8,85.1,57.1,85.4,57.1,85.8z"/>
		<path style="&st5;" d="M61.3,83.8v3.5c0,0.4-0.3,0.7-0.7,0.7h-1.2c-0.4,0-0.7-0.3-0.7-0.7v-3.5c0-0.4,0.3-0.7,0.7-0.7h1.2
			C61,83.1,61.3,83.4,61.3,83.8z"/>
		<path style="&st16;" d="M52.9,85.8v1.5c0,0.4-0.3,0.7-0.7,0.7H51c-0.4,0-0.7-0.3-0.7-0.7v-1.5c0-0.4,0.3-0.7,0.7-0.7h1.2
			C52.6,85.1,52.9,85.4,52.9,85.8z"/>
		<path style="&st8;" d="M48.6,85.8v1.5c0,0.4-0.3,0.7-0.7,0.7h-1.2c-0.4,0-0.7-0.3-0.7-0.7v-1.5c0-0.4,0.3-0.7,0.7-0.7H48
			C48.3,85.1,48.6,85.4,48.6,85.8z"/>
		<path style="&st17;" d="M44.4,85.8v1.5c0,0.4-0.3,0.7-0.7,0.7h-1.2c-0.4,0-0.7-0.3-0.7-0.7v-1.5c0-0.4,0.3-0.7,0.7-0.7h1.2
			C44.1,85.1,44.4,85.4,44.4,85.8z"/>
		<path style="&st7;" d="M65.5,82.4v4.8c0,0.4-0.3,0.7-0.7,0.7h-1.2c-0.4,0-0.7-0.3-0.7-0.7v-4.8c0-0.4,0.3-0.7,0.7-0.7h1.2
			C65.2,81.7,65.5,82,65.5,82.4z"/>
		<path style="&st5;" d="M69.7,83.8v3.5c0,0.4-0.3,0.7-0.7,0.7h-1.2c-0.4,0-0.7-0.3-0.7-0.7v-3.5c0-0.4,0.3-0.7,0.7-0.7H69
			C69.4,83.1,69.7,83.4,69.7,83.8z"/>
		<path style="&st2;" d="M73.9,80.4v6.8c0,0.4-0.3,0.7-0.7,0.7H72c-0.4,0-0.7-0.3-0.7-0.7v-6.8c0-0.4,0.3-0.7,0.7-0.7h1.2
			C73.6,79.7,73.9,80,73.9,80.4z"/>
		<path style="&st18;" d="M78.1,77v10.2c0,0.4-0.3,0.7-0.7,0.7h-1.2c-0.4,0-0.7-0.3-0.7-0.7V77c0-0.4,0.3-0.7,0.7-0.7h1.2
			C77.8,76.4,78.1,76.7,78.1,77z"/>
		<path style="&st5;" d="M82.8,46.5c-5.5,0-10-4.5-10-10s4.5-10,10-10c5.5,0,10,4.5,10,10S88.3,46.5,82.8,46.5z M82.8,28.3
			c-4.5,0-8.2,3.7-8.2,8.2s3.7,8.2,8.2,8.2c4.5,0,8.2-3.7,8.2-8.2S87.3,28.3,82.8,28.3z"/>
		<path style="&st5;" d="M84,35.6h-0.2v-1.7h1.1c0.5,0,0.9-0.4,0.9-0.9c0-0.5-0.4-0.9-0.9-0.9h-1.1v-0.4c0-0.5-0.4-0.9-0.9-0.9
			s-0.9,0.4-0.9,0.9V32h-0.2c-1.5,0-2.7,1.2-2.7,2.7s1.2,2.7,2.7,2.7h0.2v1.7h-1.1c-0.5,0-0.9,0.4-0.9,0.9c0,0.5,0.4,0.9,0.9,0.9
			h1.1v0.4c0,0.5,0.4,0.9,0.9,0.9s0.9-0.4,0.9-0.9V41H84c1.5,0,2.7-1.2,2.7-2.7S85.5,35.6,84,35.6z M81.6,35.6
			c-0.5,0-0.9-0.4-0.9-0.9c0-0.5,0.4-0.9,0.9-0.9h0.2v1.7H81.6z M84,39.2h-0.2v-1.7H84c0.5,0,0.9,0.4,0.9,0.9
			C84.8,38.8,84.4,39.2,84,39.2z"/>
		<path style="&st5;" d="M38.6,75c-5.5,0-10-4.5-10-10c0-5.5,4.5-10,10-10s10,4.5,10,10C48.7,70.5,44.2,75,38.6,75z M38.6,56.8
			c-4.5,0-8.2,3.7-8.2,8.2c0,4.5,3.7,8.2,8.2,8.2s8.2-3.7,8.2-8.2C46.8,60.5,43.1,56.8,38.6,56.8z"/>
		<path style="&st5;" d="M39.8,64.1h-0.2v-1.7h1.1c0.5,0,0.9-0.4,0.9-0.9s-0.4-0.9-0.9-0.9h-1.1v-0.4c0-0.5-0.4-0.9-0.9-0.9
			s-0.9,0.4-0.9,0.9v0.4h-0.2c-1.5,0-2.7,1.2-2.7,2.7c0,1.5,1.2,2.7,2.7,2.7h0.2v1.7h-1.1c-0.5,0-0.9,0.4-0.9,0.9s0.4,0.9,0.9,0.9
			h1.1v0.4c0,0.5,0.4,0.9,0.9,0.9s0.9-0.4,0.9-0.9v-0.4h0.2c1.5,0,2.7-1.2,2.7-2.7C42.5,65.3,41.3,64.1,39.8,64.1z M37.5,64.1
			c-0.5,0-0.9-0.4-0.9-0.9c0-0.5,0.4-0.9,0.9-0.9h0.2v1.7H37.5z M39.8,67.7h-0.2v-1.7h0.2c0.5,0,0.9,0.4,0.9,0.9
			C40.7,67.3,40.3,67.7,39.8,67.7z"/>
		<g>
			<path style="&st6;" d="M90.7,48.3c0.4-0.3,0.5-0.9,0.3-1.3c-0.3-0.4-0.9-0.5-1.3-0.3c-2,1.4-4.4,2.1-6.9,2.1
				c-6.8,0-12.3-5.5-12.3-12.3S76,24.2,82.8,24.2c6.8,0,12.3,5.5,12.3,12.3c0,2.4-0.7,4.8-2,6.8c-0.3,0.4-0.2,1,0.3,1.3
				c0.4,0.3,1,0.2,1.3-0.3c1.5-2.3,2.3-5,2.3-7.8c0-7.4-5.7-13.5-13-14.1v-0.2c0-2.7-2.2-4.8-4.8-4.8H40.9c-2.7,0-4.8,2.2-4.8,4.8
				v14.2c0,0.5,0.4,0.9,0.9,0.9s0.9-0.4,0.9-0.9v-7.1h32.7c-1.3,2.1-2,4.6-2,7.2c0,7.6,6,13.8,13.5,14.1V97c0,1.6-1.3,3-3,3H40.9
				c-1.6,0-3-1.3-3-3V79.1c0.2,0,0.5,0,0.7,0c7.8,0,14.2-6.4,14.2-14.2s-6.4-14.2-14.2-14.2c-0.3,0-0.5,0-0.7,0v-9.3
				c0-0.5-0.4-0.9-0.9-0.9S36,41,36,41.6v9.5c-6.6,1.2-11.6,7-11.6,13.9s5,12.7,11.6,13.9V97c0,2.7,2.2,4.8,4.8,4.8h38.3
				c2.7,0,4.8-2.2,4.8-4.8V50.6C86.4,50.4,88.7,49.6,90.7,48.3L90.7,48.3z M37.9,27.4v-5.2c0-1.6,1.3-3,3-3h38.3c1.6,0,3,1.3,3,3
				v0.2c-4.1,0.2-7.7,2.1-10.2,5H37.9z M26.3,65c0-6.8,5.5-12.3,12.3-12.3S50.9,58.2,50.9,65c0,6.8-5.5,12.3-12.3,12.3
				S26.3,71.8,26.3,65z"/>
			<path style="&st6;" d="M98.5,80.9l-4.6-4.8c-0.3-0.4-0.8-0.6-1.4-0.6s-1,0.2-1.4,0.6l-4.6,4.8c-0.5,0.5-0.7,1.3-0.4,2
				c0.3,0.7,1,1.1,1.7,1.1h1.3v6.2c0,1,0.8,1.9,1.9,1.9h2.7c1,0,1.9-0.8,1.9-1.9v-6.2h1.3c0.7,0,1.4-0.4,1.7-1.1
				C99.1,82.3,99,81.5,98.5,80.9z M94.9,82.2c-0.5,0-0.9,0.4-0.9,0.9v7.1h-2.7v-7.1c0-0.5-0.4-0.9-0.9-0.9H88l4.6-4.8l4.6,4.8H94.9z
				"/>
			<path style="&st6;" d="M26.1,49.8h2.7c1,0,1.9-0.8,1.9-1.9v-6.2H32c0.7,0,1.4-0.4,1.7-1.1c0.3-0.7,0.2-1.5-0.4-2l-4.6-4.8
				c-0.3-0.4-0.8-0.6-1.4-0.6c-0.5,0-1,0.2-1.4,0.6l-4.6,4.8c-0.5,0.5-0.7,1.3-0.4,2c0.3,0.7,1,1.1,1.7,1.1h1.3V48
				C24.2,49,25,49.8,26.1,49.8L26.1,49.8z M22.9,39.9l4.6-4.8l4.6,4.8h-2.3c-0.5,0-0.9,0.4-0.9,0.9V48h-2.7v-7.1
				c0-0.5-0.4-0.9-0.9-0.9H22.9z"/>
		</g>
		<path style="&st8;" d="M65.6,38.8c0-1.7-1.4-3.1-3.1-3.1c-1.7,0-3.1,1.4-3.1,3.1c0,0.8,0.3,1.6,0.9,2.2c-0.5,0.6-0.9,1.3-0.9,2.2
			c0,0.5,0.4,0.9,0.9,0.9c0.5,0,0.9-0.4,0.9-0.9c0-0.7,0.6-1.2,1.2-1.2c0.7,0,1.2,0.6,1.2,1.2c0,0.5,0.4,0.9,0.9,0.9
			s0.9-0.4,0.9-0.9c0-0.8-0.3-1.6-0.9-2.2C65.3,40.4,65.6,39.6,65.6,38.8z M62.6,37.5c0.7,0,1.2,0.6,1.2,1.2S63.2,40,62.6,40
			c-0.7,0-1.2-0.6-1.2-1.2S61.9,37.5,62.6,37.5z"/>
		<path style="&st4;" d="M91,70.1c-0.4,0.4-1,0.4-1.3,0l-5.2-5.2h-3.6c-0.7,0-1.4-0.3-2-0.8l-3.5-3.5c-0.2-0.2-0.4-0.3-0.7-0.3h-4.6
			c-0.2,0-0.5,0.1-0.7,0.3l-9.2,9.2c-0.5,0.5-1.2,0.8-2,0.8h-6.7c0.3-0.6,0.5-1.2,0.7-1.9h6.1c0.2,0,0.5-0.1,0.7-0.3l9.2-9.2
			c0.5-0.5,1.2-0.8,2-0.8h4.6c0.7,0,1.4,0.3,2,0.8l3.5,3.5c0.2,0.2,0.4,0.3,0.7,0.3h4c0.2,0,0.5,0.1,0.7,0.3l5.5,5.5
			C91.4,69.2,91.4,69.8,91,70.1L91,70.1z"/>
		<path style="&st8;" d="M95,52.1l-5.5,5.5c-0.5,0.5-1.2,0.8-2,0.8H75c-0.2,0-0.5,0.1-0.7,0.3l-2.9,2.9c-0.5,0.5-1.2,0.8-2,0.8h-7.1
			c-0.2,0-0.5,0.1-0.7,0.3l-2.5,2.5c-0.5,0.5-1.2,0.8-2,0.8h-4.5c0-0.3,0-0.6,0-0.9c0-0.3,0-0.6,0-0.9h4.5c0.2,0,0.5-0.1,0.7-0.3
			l2.5-2.5c0.5-0.5,1.2-0.8,2-0.8h7.1c0.2,0,0.5-0.1,0.7-0.3l2.9-2.9c0.5-0.5,1.2-0.8,2-0.8h12.5c0.2,0,0.5-0.1,0.7-0.3l5.5-5.5
			c0.4-0.4,1-0.4,1.3,0C95.4,51.1,95.4,51.7,95,52.1L95,52.1z"/>
		<path style="&st3;" d="M94.8,59.7l-8.3,8.3c-0.5,0.5-1.2,0.8-2,0.8h-8.2c-0.2,0-0.5,0.1-0.7,0.3l-2.3,2.3c-0.5,0.5-1.2,0.8-2,0.8
			h-8.6c-0.2,0-0.5,0.1-0.7,0.3l-1.8,1.8c-0.5,0.5-1.2,0.8-2,0.8h-9.7c0.6-0.6,1.1-1.2,1.6-1.9h8.2c0.2,0,0.5-0.1,0.7-0.3l1.8-1.8
			c0.5-0.5,1.2-0.8,2-0.8h8.6c0.2,0,0.5-0.1,0.7-0.3l2.3-2.3c0.5-0.5,1.2-0.8,2-0.8h8.2c0.2,0,0.5-0.1,0.7-0.3l8.3-8.3
			c0.4-0.4,1-0.4,1.3,0C95.2,58.7,95.2,59.3,94.8,59.7L94.8,59.7z"/>
	</g>
</g>
<g id="active_x5F_interaction" style="&st0;">
	<path style="&st19;" d="M61,58.5"/>
	<path style="&st20;" d="M62.5,81.2l13.6-13.6c2-1.9,5.1-1.9,7,0.1c1.9,1.9,1.9,5,0,6.9l6.6-6.5V57.1c0.1-2.4,2.1-4.2,4.5-4.1
		c2.2,0.1,4,1.9,4.1,4.1V71c0,1-0.4,2-1.2,2.8l-16,16c-0.9,0.9-1.3,2.3-1.1,3.6l2,9.7H60V87.3C60,85,60.9,82.8,62.5,81.2z"/>
	<path style="&st21;" d="M57.5,81.2L43.8,67.6c-1.9-1.9-5.1-1.9-7,0c-1.9,1.9-1.9,5.1,0,7l0,0l-6.5-6.5V57.1
		c-0.1-2.4-2.1-4.2-4.5-4.1c-2.2,0.1-4,1.9-4.1,4.1V71c0,1,0.4,2,1.2,2.8l15.9,16c0.9,0.9,1.3,2.3,1.1,3.6l-2,9.7H60V87.3
		C60,85,59.1,82.8,57.5,81.2z"/>
	<path style="&st22;" d="M84.8,84.7L80.5,89c-1.2,1.2-1.7,2.9-1.3,4.5l2,9.7c0.1,0.5,0.5,0.8,1,0.8h0.2c0.5-0.1,0.9-0.6,0.8-1.2
		l-2-9.7c-0.2-1,0.1-2,0.8-2.7l4.3-4.3c0.3-0.4,0.2-1.1-0.2-1.4C85.6,84.4,85.2,84.4,84.8,84.7L84.8,84.7z"/>
	<path style="&st22;" d="M88.6,66.2v1.4l-3.1,3.1c-0.2-3.3-3-5.7-6.2-5.6c-1.5,0.1-2.8,0.7-3.8,1.7L61.8,80.5
		c-0.7,0.7-1.4,1.6-1.8,2.5c-0.5-0.9-1.1-1.8-1.8-2.5L44.5,66.9c-2.3-2.3-6-2.3-8.3,0c-1,1-1.6,2.4-1.7,3.9l-3.1-3.1V57.1
		c-0.1-2.9-2.6-5.2-5.6-5.1c-2.8,0.1-5,2.3-5.1,5.1V71c0,1.3,0.5,2.6,1.4,3.5l15.9,15.9c0.7,0.7,1,1.7,0.8,2.7l-2,9.7
		c-0.1,0.5,0.2,1.1,0.8,1.2c0.1,0,0.1,0,0.2,0c0.5,0,0.9-0.3,1-0.8l2-9.7c0.3-1.6-0.2-3.3-1.3-4.5L23.6,73.1
		c-0.6-0.6-0.9-1.3-0.9-2.1V57.1c0-0.9,0.4-1.7,1-2.4c0.6-0.6,1.5-1,2.4-1c1.8,0,3.3,1.5,3.3,3.3V68c0,0.3,0.1,0.5,0.3,0.7l16,16
		c0.6,0.6,1,1.5,1,2.3c0,0.6,0.4,1,1,1s1-0.4,1-1c0-1.4-0.6-2.8-1.6-3.7l-9.4-9.5c-1.6-1.5-1.7-4-0.2-5.6s4-1.7,5.6-0.2l0,0l0.2,0.2
		l13.5,13.6c1.4,1.4,2.2,3.4,2.2,5.4V103c0,0.6,0.4,1,1,1s1-0.4,1-1V87.3c0-2,0.8-3.9,2.2-5.4l13.6-13.6c1.5-1.6,4-1.6,5.6-0.1
		c1.6,1.5,1.6,3.9,0.2,5.5l-0.2,0.2l-9.5,9.5c-1,1-1.6,2.3-1.6,3.7c0,0.6,0.4,1,1,1s1-0.4,1-1c0-0.9,0.4-1.7,1-2.3l16-16
		c0.2-0.2,0.3-0.4,0.3-0.7V57.1c0-1.8,1.5-3.3,3.3-3.3c1.8,0,3.3,1.5,3.4,3.4V71c0,0.8-0.3,1.5-0.9,2.1l-7,7
		c-0.3,0.5-0.2,1.1,0.2,1.4c0.3,0.2,0.8,0.2,1.2,0l7-7c0.9-0.9,1.4-2.2,1.4-3.5V57.2c0-1.4-0.6-2.8-1.6-3.8l0,0
		c-2.1-2.1-5.5-2-7.5,0c-1,1-1.5,2.3-1.5,3.7L88.6,66.2L88.6,66.2z"/>
	<path style="&st23;" d="M82.4,32.6v25.3l-10.8,6.3l-11,6.4L38.7,57.9V32.6l21.8-12.7l7.3,4.2l9.5,5.5L82.4,32.6z"/>
	<circle style="&st24;" cx="60.6" cy="19.9" r="2.7"/>
	<circle style="&st24;" cx="60.6" cy="70.5" r="2.7"/>
	<circle style="&st24;" cx="82.4" cy="32.6" r="2.7"/>
	<circle style="&st24;" cx="38.7" cy="32.6" r="2.7"/>
	<circle style="&st24;" cx="38.7" cy="57.9" r="2.7"/>
	<circle style="&st24;" cx="60.6" cy="45.2" r="1.4"/>
	<path style="&st22;" d="M60,36.9c0,0.3,0.2,0.7,0.5,0.7c0.3,0,0.7-0.2,0.7-0.5c0-0.1,0-0.1,0-0.2v-1.5c0-0.3-0.2-0.7-0.5-0.7
		c-0.3,0-0.7,0.2-0.7,0.5c0,0.1,0,0.1,0,0.2V36.9z"/>
	<path style="&st22;" d="M60.6,28.5c0.3,0,0.6-0.3,0.6-0.6v-1.5c0-0.3-0.4-0.6-0.7-0.6c-0.3,0-0.5,0.3-0.5,0.6v1.5
		C59.9,28.2,60.2,28.5,60.6,28.5L60.6,28.5z"/>
	<path style="&st22;" d="M60,32.4c0,0.3,0.4,0.6,0.7,0.5c0.3,0,0.5-0.3,0.5-0.5v-1.5c0-0.3-0.2-0.7-0.5-0.7c-0.3,0-0.7,0.2-0.7,0.5
		c0,0.1,0,0.1,0,0.2V32.4z"/>
	<path style="&st22;" d="M60.6,61.9c-0.3,0-0.6,0.3-0.6,0.6V64c0,0.3,0.3,0.6,0.7,0.6c0,0,0,0,0.1,0c0.3,0,0.5-0.3,0.5-0.6v-1.5
		C61.2,62.2,61,61.9,60.6,61.9L60.6,61.9z"/>
	<path style="&st22;" d="M61.2,53.5c0-0.3-0.2-0.7-0.5-0.7c-0.3,0-0.7,0.2-0.7,0.5c0,0.1,0,0.1,0,0.2V55c0,0.3,0.3,0.6,0.6,0.6
		c0,0,0.1,0,0.1,0c0.3,0,0.5-0.3,0.5-0.5L61.2,53.5z"/>
	<path style="&st22;" d="M61.2,49c0-0.3-0.4-0.6-0.7-0.5c-0.3,0-0.5,0.3-0.5,0.5v1.5c0,0.3,0.2,0.7,0.5,0.7c0.3,0,0.7-0.2,0.7-0.5
		c0-0.1,0-0.1,0-0.2V49z"/>
	<path style="&st22;" d="M61.2,58c0-0.3-0.2-0.7-0.5-0.7c-0.3,0-0.7,0.2-0.7,0.5c0,0.1,0,0.1,0,0.2v1.5c0,0.3,0.2,0.7,0.5,0.7
		c0.3,0,0.7-0.2,0.7-0.5l0,0c0-0.1,0-0.1,0-0.2V58z"/>
	<path style="&st22;" d="M60,41.5c0,0.3,0.4,0.6,0.7,0.5c0.3,0,0.5-0.3,0.5-0.5v-1.5c0-0.3-0.4-0.6-0.7-0.5c-0.3,0-0.5,0.3-0.5,0.5
		V41.5z"/>
	<path style="&st22;" d="M43.8,54.9c0.1,0.2,0.3,0.3,0.5,0.3c0.1,0,0.2,0,0.3-0.1l1.3-0.7c0.3-0.2,0.4-0.5,0.3-0.8c0,0,0,0,0,0
		c-0.2-0.3-0.5-0.4-0.8-0.3c0,0,0,0,0,0l0,0L44.1,54C43.8,54.2,43.7,54.6,43.8,54.9C43.9,54.9,43.9,54.9,43.8,54.9L43.8,54.9
		L43.8,54.9z"/>
	<path style="&st22;" d="M71.4,39.6c0.1,0,0.2,0,0.3-0.1l1.3-0.7c0.3-0.2,0.4-0.5,0.3-0.8c-0.1-0.3-0.5-0.4-0.8-0.3c0,0,0,0,0,0
		l-0.1,0L71,38.5c-0.3,0.2-0.4,0.5-0.2,0.8c0,0,0,0,0,0l0,0C70.9,39.5,71.1,39.6,71.4,39.6z"/>
	<path style="&st22;" d="M67.5,41.8c0.1,0,0.2,0,0.3-0.1l1.3-0.7c0.3-0.2,0.4-0.6,0.2-0.9c-0.2-0.3-0.5-0.4-0.8-0.2l0,0l-1.3,0.8
		c-0.3,0.2-0.4,0.5-0.2,0.8c0,0,0,0,0,0l0,0C67.1,41.7,67.3,41.8,67.5,41.8z"/>
	<path style="&st22;" d="M63.7,44.1c0.1,0,0.2,0,0.3-0.1l1.3-0.7c0.3-0.2,0.4-0.6,0.2-0.9c-0.2-0.3-0.5-0.4-0.8-0.2c0,0,0,0,0,0l0,0
		l-1.3,0.8c-0.3,0.2-0.4,0.6-0.2,0.8c0,0,0,0,0,0l0,0C63.3,43.9,63.5,44.1,63.7,44.1z"/>
	<path style="&st22;" d="M75.2,37.4c0.1,0,0.2,0,0.3-0.1l1.3-0.7c0.3-0.2,0.4-0.6,0.2-0.9c-0.2-0.3-0.5-0.4-0.8-0.2c0,0,0,0,0,0l0,0
		l-1.3,0.7c-0.3,0.2-0.4,0.6-0.2,0.9C74.8,37.2,75,37.4,75.2,37.4z"/>
	<path style="&st22;" d="M55.4,48.2c0.1,0.2,0.3,0.3,0.5,0.3c0.1,0,0.2,0,0.3-0.1l1.3-0.7c0.3-0.1,0.5-0.4,0.4-0.8
		c-0.1-0.3-0.4-0.5-0.8-0.4c0,0,0,0,0,0c-0.1,0-0.2,0.1-0.2,0.1l-1.3,0.8C55.4,47.5,55.3,47.9,55.4,48.2
		C55.5,48.2,55.5,48.2,55.4,48.2L55.4,48.2z"/>
	<path style="&st22;" d="M47.7,52.7c0.1,0.2,0.3,0.3,0.5,0.3c0.1,0,0.2,0,0.3-0.1l1.3-0.7c0.3-0.2,0.4-0.6,0.2-0.9
		c-0.2-0.3-0.5-0.4-0.8-0.2c0,0,0,0,0,0l0,0L48,51.8C47.7,52,47.6,52.4,47.7,52.7C47.7,52.7,47.7,52.7,47.7,52.7L47.7,52.7
		L47.7,52.7z"/>
	<path style="&st22;" d="M51.6,50.4c0.2,0.3,0.5,0.4,0.8,0.3l0,0l1.3-0.8c0.3-0.2,0.4-0.6,0.2-0.9c-0.2-0.3-0.5-0.4-0.8-0.2
		c0,0,0,0,0,0l0,0l-1.3,0.8C51.5,49.8,51.4,50.2,51.6,50.4C51.6,50.5,51.6,50.5,51.6,50.4L51.6,50.4z"/>
	<path style="&st22;" d="M55.8,43.2l1.3,0.7c0.1,0.1,0.2,0.1,0.3,0.1c0.2,0,0.4-0.1,0.5-0.3c0.2-0.3,0.1-0.7-0.2-0.8c0,0,0,0,0,0
		l0,0l-1.3-0.8c-0.3-0.2-0.7-0.1-0.8,0.2c0,0,0,0,0,0l0,0C55.4,42.6,55.5,43,55.8,43.2z"/>
	<path style="&st22;" d="M44.1,36.4l1.3,0.7c0.1,0.1,0.2,0.1,0.3,0.1c0.3,0,0.6-0.3,0.6-0.6c0-0.2-0.1-0.4-0.3-0.5l-1.3-0.8
		c-0.3-0.2-0.7-0.1-0.9,0.2c0,0,0,0,0,0C43.7,35.8,43.8,36.2,44.1,36.4C44.1,36.4,44.1,36.4,44.1,36.4L44.1,36.4z"/>
	<path style="&st22;" d="M51.9,40.9l1.3,0.7c0.1,0.1,0.2,0.1,0.3,0.1c0.3,0,0.6-0.3,0.6-0.7c0-0.2-0.1-0.3-0.3-0.5l-1.3-0.8
		c-0.3-0.2-0.7-0.1-0.8,0.2c0,0,0,0,0,0l0,0C51.5,40.4,51.6,40.7,51.9,40.9z"/>
	<path style="&st22;" d="M48,38.7l1.3,0.7c0.1,0.1,0.2,0.1,0.3,0.1c0.2,0,0.4-0.1,0.5-0.3c0.2-0.3,0.1-0.7-0.2-0.8c0,0,0,0,0,0l0,0
		l-1.3-0.8c-0.3-0.2-0.7,0-0.9,0.3C47.7,38.2,47.8,38.5,48,38.7L48,38.7z"/>
	<path style="&st22;" d="M74.6,54.6l1.3,0.7c0.1,0.1,0.2,0.1,0.3,0.1c0.2,0,0.4-0.1,0.5-0.3c0.2-0.3,0.1-0.7-0.2-0.8c0,0,0,0,0,0
		l0,0l-1.3-0.8c-0.3-0.2-0.7-0.1-0.8,0.2c0,0,0,0,0,0l0,0C74.2,54,74.3,54.4,74.6,54.6z"/>
	<path style="&st22;" d="M78.3,56.6l1.3,0.7c0.1,0.1,0.2,0.1,0.3,0.1c0.2,0,0.4-0.1,0.5-0.3c0.2-0.3,0.1-0.7-0.2-0.8l0,0L79,55.5
		c-0.3-0.2-0.7-0.1-0.8,0.2l0,0C77.9,56,78,56.4,78.3,56.6z"/>
	<path style="&st22;" d="M63,47.8l1.3,0.7c0.1,0.1,0.2,0.1,0.3,0.1c0.3,0,0.6-0.3,0.6-0.6c0,0,0,0,0,0c0-0.2-0.1-0.4-0.3-0.5
		l-1.3-0.8c-0.3-0.2-0.7-0.1-0.9,0.2C62.6,47.2,62.7,47.6,63,47.8L63,47.8z"/>
	<path style="&st22;" d="M70.7,52.3l1.3,0.7c0.1,0.1,0.2,0.1,0.3,0.1c0.3,0,0.6-0.3,0.6-0.6c0,0,0,0,0,0c0-0.2-0.1-0.4-0.3-0.5
		l-1.3-0.8c-0.3-0.2-0.7-0.1-0.8,0.2c0,0,0,0,0,0l0,0C70.3,51.7,70.4,52.1,70.7,52.3z"/>
	<path style="&st22;" d="M66.9,50.1l1.3,0.7c0.1,0.1,0.2,0.1,0.3,0.1c0.2,0,0.4-0.1,0.5-0.3c0.2-0.3,0.1-0.7-0.2-0.8l0,0L67.5,49
		c-0.3-0.2-0.7-0.1-0.8,0.2c0,0,0,0,0,0C66.5,49.6,66.6,49.9,66.9,50.1z"/>
	<path style="&st22;" d="M83,46.7V35.8c1.8-0.3,3-2.1,2.7-3.9c-0.3-1.8-2.1-3-3.9-2.7c-0.7,0.1-1.4,0.5-1.9,1.1l-2-1.2l-10.7-6.2
		l-3.5-2c0.1-0.4,0.2-0.7,0.2-1.1c0.2-1.8-1-3.5-2.9-3.7c-1.8-0.2-3.5,1-3.7,2.9c0,0.2,0,0.3,0,0.5c0,0.1,0,0.2,0,0.4
		c0,0.4,0.1,0.7,0.2,1.1l-16.2,9.3c-1.2-1.4-3.3-1.5-4.7-0.3s-1.5,3.3-0.3,4.7c0.5,0.6,1.2,1,1.9,1.1v18.8c-1.8,0.3-3,2.1-2.7,3.9
		c0.3,1.8,2.1,3,3.9,2.7c0.7-0.1,1.4-0.5,1.9-1.1l16.2,9.3c-0.1,0.4-0.2,0.7-0.2,1.1c-0.1,1.8,1.3,3.4,3.1,3.5s3.4-1.3,3.5-3.1
		c0,0,0,0,0-0.1c0-0.1,0-0.2,0-0.4c0-0.4-0.1-0.7-0.2-1.1l11.3-6.5l7.7-4.4L83,46.7z M81.8,47.3l-0.2,10.5l-9.1,5.1l-9.4,5.5
		c-0.5-0.6-1.2-1-1.9-1.1V67c0-0.3-0.2-0.7-0.5-0.7c-0.3,0-0.7,0.2-0.7,0.5c0,0.1,0,0.1,0,0.2v0.2c-0.7,0.1-1.4,0.5-1.9,1.1L41.9,59
		c0.1-0.4,0.2-0.7,0.2-1.1c0-0.4-0.1-0.7-0.2-1.1l0.3-0.2c0.3-0.2,0.4-0.6,0.2-0.9c-0.2-0.3-0.5-0.4-0.8-0.2c0,0,0,0,0,0l0,0
		l-0.3,0.2c-0.5-0.6-1.2-0.9-1.9-1.1V35.8c0.7-0.1,1.4-0.5,1.9-1.1l0.3,0.2c0.1,0.1,0.2,0.1,0.3,0.1c0.3,0,0.6-0.3,0.6-0.6
		c0-0.2-0.1-0.4-0.3-0.5l-0.3-0.2c0.3-0.7,0.3-1.5,0-2.2l16.2-9.4c0.5,0.6,1.2,0.9,1.9,1.1v0.2c0,0.3,0.2,0.7,0.5,0.7
		c0.3,0,0.7-0.2,0.7-0.5c0-0.1,0-0.1,0-0.2v-0.2c0.7-0.1,1.4-0.5,1.9-1.1l4.1,2.4l9.8,5.7l2.2,1.3c-0.3,0.7-0.3,1.5,0,2.2L78.8,34
		c-0.3,0.2-0.4,0.6-0.2,0.9c0.1,0.2,0.3,0.3,0.5,0.3c0.1,0,0.2,0,0.3-0.1l0.5-0.3c0.5,0.6,1.2,1,1.9,1.1V47.3c0,0.3,0.3,0.6,0.6,0.6
		l0,0 M38.7,34.7c-1.1,0-2.1-0.9-2.1-2.1c0-1.1,0.9-2.1,2.1-2.1c1.1,0,2.1,0.9,2.1,2.1l0,0C40.8,33.7,39.9,34.7,38.7,34.7z M60.6,22
		c-1.1,0-2.1-1-2-2.1c0-1.1,1-2.1,2.1-2c1.1,0,2,0.9,2,2.1l0,0C62.7,21.1,61.8,22,60.6,22C60.6,22,60.6,22,60.6,22z M80.3,32.6
		c0-1.1,1-2.1,2.1-2c1.1,0,2.1,1,2,2.1c0,1.1-0.9,2-2.1,2C81.3,34.7,80.3,33.8,80.3,32.6C80.3,32.6,80.3,32.6,80.3,32.6z M38.7,59.9
		c-1.1,0-2.1-0.9-2.1-2.1s0.9-2.1,2.1-2.1c1.1,0,2.1,0.9,2.1,2.1l0,0C40.8,59,39.9,59.9,38.7,59.9z M60.6,72.6c-1.1,0-2.1-1-2-2.1
		s1-2.1,2.1-2c1.1,0,2,0.9,2,2l0,0C62.7,71.6,61.8,72.6,60.6,72.6C60.6,72.6,60.6,72.6,60.6,72.6z"/>
	<path style="&st22;" d="M58.5,45.2c0,1.1,0.9,2,2,2s2-0.9,2-2c0-1.1-0.9-2-2-2S58.5,44.1,58.5,45.2z M60.5,44.4
		c0.4,0,0.8,0.3,0.8,0.8c0,0.4-0.3,0.8-0.8,0.8c-0.4,0-0.8-0.3-0.8-0.8l0,0C59.8,44.8,60.1,44.4,60.5,44.4z"/>
	<ellipse style="&st25;" cx="81.9" cy="58" rx="2.6" ry="2.8"/>
</g>
<g id="increase_x5F_interaction" style="&st0;">
	<path style="&st26;" d="M92.7,38.8v44.9c0,0.6-0.5,1-1.1,1H26.2v-46c0-2.5,2-4.5,4.5-4.5h57.6C90.7,34.3,92.7,36.3,92.7,38.8
		L92.7,38.8z"/>
	<path style="&st27;" d="M66.7,61.9c-0.3,0-0.6-0.1-0.8-0.4L59.4,54l-6.5,7.5c-0.4,0.5-1.1,0.5-1.5,0.1c-0.5-0.4-0.5-1.1-0.1-1.5
		l7.3-8.5c0.4-0.4,1.1-0.5,1.5-0.1c0,0,0.1,0.1,0.1,0.1l7.3,8.5c0.4,0.5,0.3,1.1-0.1,1.5C67.2,61.8,67,61.9,66.7,61.9z"/>
	<circle style="&st27;" cx="76.2" cy="53.8" r="1.2"/>
	<circle style="&st27;" cx="79.8" cy="53.8" r="1.2"/>
	<circle style="&st27;" cx="83.4" cy="53.8" r="1.2"/>
	<circle style="&st27;" cx="76.2" cy="57.5" r="1.2"/>
	<circle style="&st27;" cx="79.8" cy="57.5" r="1.2"/>
	<circle style="&st27;" cx="83.4" cy="57.5" r="1.2"/>
	<path style="&st27;" d="M70.2,71.6H48.6c-0.6,0-1.1-0.5-1.1-1.1v-8.6c0-0.6,0.5-1.1,1.1-1.1h21.6c0.6,0,1.1,0.5,1.1,1.1v8.6
		C71.3,71.1,70.8,71.6,70.2,71.6z"/>
	<path style="&st24;" d="M92.7,75v8.8c0,0.6-0.5,1-1.1,1H26.2V75H92.7z"/>
	<path style="&st23;" d="M99.8,83v2.5c0,2.6-2.1,4.7-4.7,4.7c0,0,0,0,0,0H23.7c-2.6,0-4.7-2.1-4.7-4.6c0,0,0,0,0,0V83
		c0-1.5,1.2-2.7,2.7-2.7l0,0h23c0.4,0,0.8,0.2,0.9,0.6l1.4,2.7c0.2,0.4,0.6,0.6,1,0.6h22.8c0.4,0,0.8-0.2,0.9-0.6l1.4-2.7
		c0.2-0.4,0.6-0.6,1-0.6h23C98.6,80.3,99.8,81.5,99.8,83L99.8,83L99.8,83L99.8,83z"/>
	<path style="&st20;" d="M91.6,84.2h-9.3c-0.6,0-1.1-0.5-1.1-1.1v0l0,0v-2.8h11.5v2.8C92.6,83.7,92.2,84.2,91.6,84.2
		C91.6,84.2,91.6,84.2,91.6,84.2L91.6,84.2z"/>
	<path style="&st20;" d="M36.6,84.2h-9.3c-0.6,0-1.1-0.5-1.1-1.1l0,0v-2.8h11.5v2.8C37.6,83.7,37.2,84.2,36.6,84.2
		C36.6,84.2,36.6,84.2,36.6,84.2z"/>
	<path style="&st20;" d="M31.7,48.2c-3.1,0-5.5-2.5-5.5-5.5v0l0,0v-3.8c0-2.5,2-4.5,4.5-4.5h6.6v8.3C37.2,45.7,34.8,48.2,31.7,48.2
		C31.7,48.2,31.7,48.2,31.7,48.2z"/>
	<path style="&st23;" d="M42.8,48.2c-3.1,0-5.5-2.5-5.5-5.5v-8.3h11.1v8.3C48.3,45.7,45.8,48.2,42.8,48.2L42.8,48.2z"/>
	<path style="&st20;" d="M53.9,48.2c-3.1,0-5.5-2.5-5.5-5.5v0l0,0v-8.3h11.1v8.3C59.4,45.7,56.9,48.2,53.9,48.2L53.9,48.2z"/>
	<path style="&st23;" d="M65,48.2c-3.1,0-5.5-2.5-5.5-5.5v-8.3h11v8.3C70.5,45.7,68,48.1,65,48.2z"/>
	<path style="&st20;" d="M76,48.2c-3.1,0-5.5-2.5-5.5-5.5v0l0,0v-8.3h11.1v8.3C81.6,45.7,79.1,48.2,76,48.2C76,48.2,76,48.2,76,48.2
		z"/>
	<path style="&st23;" d="M87.1,48.2c-3.1,0-5.5-2.5-5.6-5.5v-8.3h6.6c2.5,0,4.5,2,4.5,4.5v3.8C92.7,45.7,90.2,48.2,87.1,48.2
		C87.1,48.2,87.1,48.2,87.1,48.2z"/>
	<path style="&st23;" d="M30,50.9H13.2c-1.2,0-2.1-0.9-2.2-2.1l0,0V32c0-1.2,1-2.1,2.2-2.1H30c1.2,0,2.1,0.9,2.2,2.1c0,0,0,0,0,0
		l0,0v16.8C32.1,49.9,31.2,50.9,30,50.9z"/>
	<path style="&st21;" d="M106.8,64.4H90c-1.2,0-2.2-1-2.2-2.1c0,0,0,0,0,0l0,0V45.5c0-1.2,1-2.1,2.2-2.1l0,0h16.8
		c1.2,0,2.2,1,2.2,2.1l0,0l0,0v16.8C108.9,63.4,108,64.4,106.8,64.4C106.8,64.4,106.8,64.4,106.8,64.4L106.8,64.4z"/>
	<path style="&st28;" d="M70.2,70H48.6c-0.6,0-1.1-0.5-1.1-1.1v-8.6c0-0.6,0.5-1.1,1.1-1.1h21.6c0.6,0,1.1,0.5,1.1,1.1v8.6
		C71.3,69.5,70.8,70,70.2,70z"/>
	<path style="&st27;" d="M51,67.7h1.3c0.6,0,1.1-0.5,1.1-1.1v-4c0-0.6-0.5-1.1-1.1-1.1H51c-0.6,0-1.1,0.5-1.1,1.1v4
		C49.9,67.2,50.4,67.7,51,67.7z"/>
	<path style="&st27;" d="M56.2,67.7h1.3c0.6,0,1.1-0.5,1.1-1.1v-4c0-0.6-0.5-1.1-1.1-1.1h-1.3c-0.6,0-1.1,0.5-1.1,1.1v4
		C55.1,67.2,55.6,67.7,56.2,67.7z"/>
	<path style="&st27;" d="M61.4,67.7h1.3c0.6,0,1.1-0.5,1.1-1.1v-4c0-0.6-0.5-1.1-1.1-1.1h-1.3c-0.6,0-1.1,0.5-1.1,1.1v4
		C60.3,67.2,60.8,67.7,61.4,67.7z"/>
	<path style="&st27;" d="M66.6,67.7h1.3c0.6,0,1.1-0.5,1.1-1.1v-4c0-0.6-0.5-1.1-1.1-1.1h-1.3c-0.6,0-1.1,0.5-1.1,1.1c0,0,0,0,0,0
		l0,0v4C65.5,67.2,66,67.7,66.6,67.7L66.6,67.7z"/>
	<path style="&st27;" d="M35.8,60.3h-3c-0.6-0.1-1-0.6-1-1.2c0-0.5,0.5-0.9,1-1h3c0.6,0.1,1,0.6,1,1.2
		C36.7,59.9,36.3,60.3,35.8,60.3z"/>
	<path style="&st27;" d="M41.7,66.1h-8.9c-0.6,0-1.1-0.5-1.1-1.1c0-0.6,0.5-1.1,1.1-1.1c0,0,0,0,0,0h8.9c0.6,0,1.1,0.5,1.1,1.1
		C42.8,65.6,42.3,66.1,41.7,66.1C41.7,66.1,41.7,66.1,41.7,66.1z"/>
	<path style="&st27;" d="M41.7,69.6h-8.9c-0.6-0.1-1-0.6-1-1.2c0-0.5,0.5-0.9,1-1h8.9c0.6-0.1,1.1,0.4,1.2,1c0.1,0.6-0.4,1.1-1,1.2
		l0,0H41.7z"/>
	<path style="&st20;" d="M61.3,78.4h-3.7c-0.6,0-1.1,0.5-1.1,1.1c0,0.6,0.5,1.1,1.1,1.1h3.7c0.6,0,1.1-0.5,1.1-1.1
		C62.3,78.9,61.9,78.4,61.3,78.4z"/>
	<path style="&st22;" d="M106.8,42.3h-13v-3.4l0,0c0-3.1-2.5-5.5-5.6-5.5h-55V32c0-1.8-1.4-3.2-3.2-3.2c0,0,0,0,0,0H13.2
		c-1.8,0-3.2,1.4-3.2,3.2v16.8c0,1.8,1.5,3.2,3.2,3.2h11.9v17c0.1,0.6,0.6,1,1.2,1c0.5,0,0.9-0.5,1-1V52H30c1.6,0,3-1.2,3.2-2.9
		c1.7-0.4,3.1-1.4,4.1-2.8c2,3.1,6.1,3.9,9.2,1.9c0.8-0.5,1.4-1.2,1.9-1.9c2,3.1,6.1,3.9,9.2,1.9c0.8-0.5,1.4-1.2,1.9-1.9
		c2,3.1,6.1,3.9,9.2,1.9c0.8-0.5,1.4-1.2,1.9-1.9c2,3.1,6.1,3.9,9.2,1.9c0.8-0.5,1.4-1.2,1.9-1.9c1.2,1.8,3.1,2.9,5.2,3v13
		c0,1.7,1.4,3.1,3.2,3.2h1.6v8.5H26.2c-0.6,0-1.1,0.5-1.1,1.1v4.3h-3.4c-2.1,0-3.7,1.7-3.7,3.8v2.5c0,3.2,2.6,5.8,5.8,5.8h71.3
		c3.2,0,5.8-2.6,5.8-5.8V83c0-2.1-1.7-3.8-3.8-3.8l0,0h-3.4V65.4h13c1.8,0,3.2-1.4,3.3-3.2c0,0,0,0,0,0l0,0V45.5
		C110,43.7,108.6,42.3,106.8,42.3C106.8,42.3,106.8,42.3,106.8,42.3z M90.1,79.3c-0.6,0.1-1,0.6-1,1.2c0,0.5,0.5,0.9,1,1h1.5v1.7
		h-9.3v-1.7H84c0.6,0.1,1.1-0.4,1.2-1c0.1-0.6-0.4-1.1-1-1.2H74.1c-0.8,0-1.5,0.5-1.9,1.2l-1.4,2.7H48l-1.4-2.7
		c-0.4-0.7-1.1-1.1-1.9-1.1H27.2v-3.2h64.4v3.2L90.1,79.3z M36.6,83.1h-9.3v-1.7h9.3L36.6,83.1z M98.7,83v2.5c0,2-1.6,3.6-3.6,3.6
		H23.7c-2,0-3.6-1.6-3.6-3.6V83c0-0.9,0.7-1.6,1.6-1.6h3.4v1.7c0,1.2,1,2.2,2.1,2.2l0,0h9.3c1.2,0,2.1-1,2.1-2.2l0,0l0,0v-1.7h6
		l1.4,2.7c0.4,0.7,1.1,1.1,1.9,1.1h22.8c0.8,0,1.5-0.4,1.9-1.1l1.4-2.6h6v1.7c0,1.2,1,2.2,2.2,2.2l0,0h9.3c1.2,0,2.2-1,2.2-2.2
		c0,0,0,0,0,0l0,0v-1.7h3.4C98,81.4,98.7,82.1,98.7,83L98.7,83z M31,48.8c0,0.6-0.5,1-1,1H13.2c-0.6,0-1-0.5-1.1-1V32
		c0-0.6,0.5-1.1,1.1-1.1H30c0.6,0,1.1,0.5,1.1,1.1L31,48.8z M33.2,46.9V35.4h3v7.2C36.2,44.5,35,46.2,33.2,46.9L33.2,46.9z
		 M42.8,47.1c-2.5,0-4.5-2-4.5-4.5l0,0v-7.3h8.9v7.2C47.3,45.1,45.3,47.1,42.8,47.1L42.8,47.1z M53.9,47.1c-2.5,0-4.5-2-4.5-4.5
		v-7.3h8.9v7.2C58.3,45.1,56.3,47.1,53.9,47.1C53.9,47.1,53.9,47.1,53.9,47.1L53.9,47.1L53.9,47.1z M65,47.1c-2.5,0-4.5-2-4.5-4.5
		l0,0l0,0v-7.3h8.9v7.2C69.5,45.1,67.5,47.1,65,47.1L65,47.1z M76,47.1c-2.5,0-4.5-2-4.5-4.5v-7.3h8.9v7.2
		C80.5,45.1,78.5,47.1,76,47.1C76,47.1,76,47.1,76,47.1L76,47.1z M82.6,42.7v-7.3h5.5c1.9,0,3.4,1.5,3.4,3.4v3.4H90
		c-1.8,0-3.2,1.4-3.2,3.2l0,0l0,0v1.6C84.4,46.9,82.6,45,82.6,42.7L82.6,42.7z M107.8,62.2c0,0.6-0.5,1.1-1.1,1.1H90
		c-0.6,0-1-0.5-1-1.1V45.5c0-0.6,0.4-1,1-1.1h16.8c0.6,0,1.1,0.5,1.1,1.1V62.2z"/>
	<path style="&st26;" d="M94.7,53c-1.5,0-2.8-1.2-2.8-2.8c0-1.5,1.2-2.8,2.8-2.8c1.5,0,2.8,1.2,2.8,2.8l0,0
		C97.5,51.7,96.3,52.9,94.7,53L94.7,53L94.7,53z M94.7,49.5c-0.4,0-0.7,0.3-0.7,0.6c0,0.4,0.3,0.7,0.6,0.7c0.4,0,0.7-0.3,0.7-0.6
		l0,0C95.4,49.8,95.1,49.5,94.7,49.5C94.7,49.5,94.7,49.5,94.7,49.5z"/>
	<path style="&st26;" d="M102.1,60.3c-1.5,0-2.8-1.3-2.8-2.8s1.3-2.8,2.8-2.8c1.5,0,2.8,1.3,2.8,2.8
		C104.9,59.1,103.6,60.3,102.1,60.3L102.1,60.3z M102.1,56.9c-0.4,0-0.7,0.3-0.7,0.7c0,0.4,0.3,0.6,0.7,0.6c0.4,0,0.7-0.3,0.7-0.7
		l0,0C102.7,57.2,102.4,56.9,102.1,56.9L102.1,56.9z"/>
	<path style="&st26;" d="M95.3,58c-0.3,0-0.6-0.1-0.8-0.3c-0.4-0.4-0.4-1.1,0-1.5c0,0,0,0,0,0l0,0l6.1-6.1c0.4-0.4,1.1-0.4,1.5,0
		c0.4,0.4,0.4,1.1,0,1.5l0,0l-6.1,6.1C95.9,57.9,95.6,58,95.3,58z"/>
	<path style="&st26;" d="M16.9,38.1l4.5-4.8c0.4-0.4,0.9-0.4,1.3,0l0,0l4.6,4.8c0.4,0.4,0.4,0.9,0,1.3c-0.2,0.2-0.4,0.3-0.6,0.3
		h-2.3v7.2c0,0.5-0.4,0.9-0.9,0.9c0,0,0,0,0,0h-2.8c-0.5,0-0.9-0.4-0.9-0.9l0,0l0,0v-7.2h-2.3c-0.5,0-0.9-0.4-0.9-0.9c0,0,0,0,0,0
		C16.6,38.5,16.7,38.3,16.9,38.1z"/>
</g>
</svg>
